<?xml version="1.0" encoding="UTF-8"?>
<svg xmlns="http://www.w3.org/2000/svg" xmlns:xlink="http://www.w3.org/1999/xlink" version="1.1" id="Ebene_1" x="0px" y="0px" viewBox="0 0 875.9 238.1" style="enable-background:new 0 0 875.9 238.1;" xml:space="preserve">
<style type="text/css">
	.st0{fill:#232871;}
	.st1{font-family:'AeonikPro-Regular';}
	.st2{font-size:13.1586px;}
</style>
<g>
	<polygon class="st0" points="72.4,93.1 72.4,164.5 85.4,164.5 85.5,124.6 134.9,124.6 134.9,113.5 85.5,113.5 85.4,84.8    141.4,84.8 141.4,73.6 91.9,73.6  "></polygon>
	<polygon class="st0" points="341,73.6 291.5,73.6 272.1,93.1 272.1,164.5 285,164.5 285.1,124.6 334.5,124.6 334.5,113.5    285.1,113.5 285,84.8 341,84.8  "></polygon>
	<path class="st0" d="M232.5,154.7l-18.6-81H199l-18.6,81l-18.6-81H148l23,90.8c5.3,0,12.8,0,18.1,0c2.4-11,14-56.1,17.4-74   c2,10,17.1,72.9,17.4,74c5.3,0,12.8,0,18.1,0l23-90.8h-13.8L232.5,154.7z"></path>
</g>
<g>
	<path class="st0" d="M373.8,110.3l14-36.7h5.4l13.9,36.7h-4.9l-3.9-9.9h-16l-3.9,9.9H373.8z M383.7,96.3H397l-6.7-17.7L383.7,96.3z   "></path>
	<path class="st0" d="M429.6,83.6h4.3v26.7h-3.7l-0.6-3.6c-1.6,2-4.1,3.9-8.5,3.9c-5.9,0-10.5-3.3-10.5-12.2V83.6h4.3v14.6   c0,5.6,2.5,8.5,7,8.5c4.9,0,7.8-3.7,7.8-9.7L429.6,83.6L429.6,83.6z"></path>
	<path class="st0" d="M443.4,101.5c0.2,3.1,2.9,5.4,7.4,5.4c3.8,0,6.4-1.6,6.4-4.1c0-3.4-2.9-3.6-6.9-4.1c-6-0.7-10.7-1.9-10.7-7.5   c0-4.9,4.5-8.1,10.5-8c6.1,0.1,10.5,2.9,10.9,8.4h-4.4c-0.3-2.7-2.8-4.8-6.5-4.8s-6.2,1.6-6.2,4c0,2.9,2.8,3.3,6.7,3.8   c6.1,0.7,10.9,1.9,10.9,7.8c0,5-4.8,8.1-10.7,8.1c-6.9,0-11.7-3.2-11.8-9.1L443.4,101.5L443.4,101.5z"></path>
	<path class="st0" d="M468.5,87.5h-4.8v-3.9h4.8v-7.5h4.3v7.5h6.9v3.9h-6.9v15.8c0,2.3,0.8,3.1,3.1,3.1h4.2v3.9h-4.7   c-5.1,0-7-2.3-7-7V87.5H468.5z"></path>
	<path class="st0" d="M497.8,83.6v4.2h-2.1c-5.6,0-7.1,4.7-7.1,8.9v13.6h-4.3V83.6h3.7l0.6,4c1.3-2,3.3-4,8.1-4H497.8z"></path>
	<path class="st0" d="M501.2,76.3c0-1.6,1.2-2.8,2.8-2.8s2.8,1.2,2.8,2.8s-1.2,2.8-2.8,2.8S501.2,77.9,501.2,76.3z M501.8,83.6h4.3   v26.7h-4.3V83.6z"></path>
	<path class="st0" d="M537.3,106.4v3.9h-2.4c-3.6,0-4.8-1.5-4.8-4.1c-1.7,2.4-4.3,4.5-9,4.5c-5.9,0-9.8-2.9-9.8-7.8   c0-5.3,3.7-8.3,10.7-8.3h7.9v-1.8c0-3.5-2.5-5.6-6.7-5.6c-3.8,0-6.3,1.8-6.8,4.5h-4.3c0.6-5.2,4.9-8.3,11.3-8.3   c6.8,0,10.7,3.4,10.7,9.6v11.7c0,1.4,0.5,1.8,1.7,1.8L537.3,106.4L537.3,106.4z M529.9,98.1h-8.3c-3.8,0-6,1.4-6,4.5   c0,2.6,2.3,4.4,5.8,4.4c5.3,0,8.4-3.1,8.4-7.5L529.9,98.1L529.9,98.1z"></path>
	<path class="st0" d="M564.8,95.4v14.9h-4.3V95.7c0-5.6-2.6-8.5-7.2-8.5c-5,0-8.1,3.7-8.1,9.7v13.4h-4.3V83.6h3.7l0.6,3.6   c1.6-2,4.3-3.9,8.8-3.9C560,83.3,564.8,86.6,564.8,95.4z"></path>
	<path class="st0" d="M380,152.5c0.4,4.9,4.2,8.2,9.8,8.2c4.9,0,8.4-2.3,8.4-6.2c0-4.6-4.5-5.5-10.1-6.4c-5.9-1-12-2.9-12-10.1   c0-6.2,5.1-10.4,12.5-10.4c8.2,0,13.2,4.6,13.6,11.2h-4.7c-0.5-4.2-3.9-7-8.9-7c-4.8,0-8,2.1-8,6c0,4.4,4.5,5.3,10,6.2   c6,1,12.1,3,12.1,10.1c0,6.3-5.3,10.8-13,10.8c-9,0-14.2-5.1-14.5-12.3h4.8V152.5z"></path>
	<path class="st0" d="M407.3,151.2c0-8.2,5.3-13.7,13-13.7c6.5,0,10.7,3.7,11.8,9.5h-4.5c-0.8-3.6-3.4-5.7-7.3-5.7   c-5.1,0-8.6,4.1-8.6,9.9s3.5,9.8,8.6,9.8c3.8,0,6.4-2.2,7.3-5.6h4.6c-1,5.8-5.4,9.4-11.9,9.4C412.4,164.8,407.3,159.5,407.3,151.2z   "></path>
	<path class="st0" d="M436.6,130.5c0-1.6,1.2-2.8,2.8-2.8s2.8,1.2,2.8,2.8s-1.2,2.8-2.8,2.8S436.6,132.1,436.6,130.5z M437.2,137.7   h4.3v26.7h-4.3V137.7z"></path>
	<path class="st0" d="M446.7,151.1c0-8.1,5.1-13.7,12.7-13.7c7.5,0,12.5,4.8,12.7,12.7c0,0.6-0.1,1.2-0.1,1.8h-20.7v0.4   c0.2,5.1,3.4,8.6,8.4,8.6c3.8,0,6.7-2,7.6-5.4h4.3c-1,5.3-5.4,9.3-11.6,9.3C451.9,164.8,446.7,159.3,446.7,151.1z M467.4,148.4   c-0.4-4.6-3.6-7.2-8-7.2c-3.9,0-7.5,2.8-8,7.2H467.4z"></path>
	<path class="st0" d="M501.2,149.6v14.9h-4.3v-14.6c0-5.6-2.6-8.5-7.2-8.5c-5,0-8.1,3.7-8.1,9.7v13.4h-4.3v-26.7h3.7l0.6,3.6   c1.6-2,4.3-3.9,8.8-3.9C496.4,137.4,501.2,140.7,501.2,149.6z"></path>
	<path class="st0" d="M506,151.2c0-8.2,5.3-13.7,13-13.7c6.5,0,10.7,3.7,11.8,9.5h-4.5c-0.8-3.6-3.4-5.7-7.3-5.7   c-5.1,0-8.6,4.1-8.6,9.9s3.5,9.8,8.6,9.8c3.8,0,6.4-2.2,7.3-5.6h4.6c-1,5.8-5.4,9.4-11.9,9.4C511.2,164.8,506,159.5,506,151.2z"></path>
	<path class="st0" d="M534.9,151.1c0-8.1,5.1-13.7,12.7-13.7c7.5,0,12.5,4.8,12.7,12.7c0,0.6-0.1,1.2-0.1,1.8h-20.7v0.4   c0.2,5.1,3.4,8.6,8.4,8.6c3.8,0,6.7-2,7.6-5.4h4.3c-1,5.3-5.4,9.3-11.6,9.3C540.2,164.8,534.9,159.3,534.9,151.1z M555.7,148.4   c-0.4-4.6-3.6-7.2-8-7.2c-3.9,0-7.5,2.8-8,7.2H555.7z"></path>
	<path class="st0" d="M580.2,127.8H603v4.2h-18.2v12.3h15.1v4.2h-15.1v16h-4.6V127.8z"></path>
	<path class="st0" d="M626.2,137.7h4.3v26.7h-3.7l-0.6-3.6c-1.6,2-4.1,3.9-8.5,3.9c-5.9,0-10.5-3.3-10.5-12.2v-14.9h4.3v14.6   c0,5.6,2.5,8.5,7,8.5c4.9,0,7.8-3.7,7.8-9.7L626.2,137.7L626.2,137.7z"></path>
	<path class="st0" d="M660.6,149.6v14.9h-4.3v-14.6c0-5.6-2.6-8.5-7.2-8.5c-5,0-8.1,3.7-8.1,9.7v13.4h-4.3v-26.7h3.7l0.6,3.6   c1.6-2,4.3-3.9,8.8-3.9C655.8,137.4,660.6,140.7,660.6,149.6z"></path>
	<path class="st0" d="M687.5,127.8h4.3v36.7H688l-0.6-4.3c-1.8,2.5-4.7,4.6-9.2,4.6c-7.4,0-12.8-5-12.8-13.7   c0-8.2,5.4-13.7,12.8-13.7c4.5,0,7.5,1.8,9.2,4.4L687.5,127.8L687.5,127.8z M687.5,151.2c0-5.9-3.6-10-8.8-10c-5.3,0-8.9,4-8.9,9.8   s3.6,9.8,8.9,9.8C684,161,687.5,156.9,687.5,151.2z"></path>
</g>
<text transform="matrix(1 0 0 1 482.2053 84.799)" class="st0 st1 st2"> </text>
</svg>
