<?xml version="1.0" encoding="UTF-8" standalone="no"?>
<svg
   xmlns:dc="http://purl.org/dc/elements/1.1/"
   xmlns:cc="http://creativecommons.org/ns#"
   xmlns:rdf="http://www.w3.org/1999/02/22-rdf-syntax-ns#"
   xmlns:svg="http://www.w3.org/2000/svg"
   xmlns="http://www.w3.org/2000/svg"
   viewBox="0 0 1048 286.66666"
   height="286.66666"
   width="1048"
   xml:space="preserve"
   id="svg2"
   version="1.1"><metadata
     id="metadata8"><rdf:RDF><cc:Work
         rdf:about=""><dc:format>image/svg+xml</dc:format><dc:type
           rdf:resource="http://purl.org/dc/dcmitype/StillImage" /></cc:Work></rdf:RDF></metadata><defs
     id="defs6"><clipPath
       id="clipPath20"
       clipPathUnits="userSpaceOnUse"><path
         style="clip-rule:evenodd"
         id="path18"
         d="M 9.85156,2141.64 H 7859.85 V 1.64453 H 9.85156 Z" /></clipPath></defs><g
     transform="matrix(1.3333333,0,0,-1.3333333,0,286.66667)"
     id="g10"><g
       transform="scale(0.1)"
       id="g12"><g
         id="g14"><g
           clip-path="url(#clipPath20)"
           id="g16"><path
             id="path22"
             style="fill:#c8c7c7;fill-opacity:1;fill-rule:nonzero;stroke:none"
             d="M 964.305,1961.23 H 277.902 c -46.234,0 -76.464,-35.57 -76.464,-83.58 V 1667.44 H 912.5 L 880.902,1488.21 H 201.438 V 1002.37 H 14.7188 v 885.57 c 0,136.93 64.0195,252.51 241.8442,252.51 H 995.91 l -31.605,-179.22" /><path
             id="path24"
             style="fill:#244ba6;fill-opacity:1;fill-rule:nonzero;stroke:none"
             d="m 1154.58,2140.45 v -834.01 c 0,-195.61 49.8,-304.08 279.19,-304.08 h 1237.69 v 1138.09 h -188.5 V 1173.07 H 2103.3 c -60.46,0 -83.59,21.34 -83.59,78.24 v 889.14 h -184.93 -3.56 v -967.38 h -385.01 c -74.68,0 -101.35,26.67 -101.35,101.36 v 866.02 h -190.28" /><path
             id="path26"
             style="fill:#244ba6;fill-opacity:1;fill-rule:nonzero;stroke:none"
             d="m 3809.54,1961.23 h -686.4 c -46.23,0 -76.46,-35.57 -76.46,-83.58 v -210.21 h 711.06 l -31.6,-179.23 h -679.46 v -485.84 h -186.72 v 885.57 c 0,136.93 64.02,252.51 241.84,252.51 h 739.35 l -31.61,-179.22" /><path
             id="path28"
             style="fill:#231f20;fill-opacity:1;fill-rule:evenodd;stroke:none"
             d="m 1168.81,9.91797 h 8.43 c 18.06,0 39.14,-0.60156 63.23,-1.20313 28.91,-0.60156 52.39,-0.60156 71.66,-0.60156 52.39,0 87.92,7.82812 111.41,24.68752 42.75,30.7109 68.04,95.1482 68.04,174.6372 0,86.113 -24.08,151.148 -67.44,180.656 -24.69,17.465 -54.8,25.293 -97.56,25.293 -6.02,0 -37.94,-0.602 -93.94,-1.809 h -60.22 -3.61 v -4.816 c 0.6,-10.84 1.21,-42.758 1.81,-95.75 l 1.2,-100.563 -1.2,-99.965 c -0.6,-52.9957 -1.21,-84.9098 -1.81,-95.7496 z m 66.84,42.75393 v 4.8164 l -1.2,69.8597 -0.6,83.101 v 12.645 c 0,16.261 0,44.558 0.6,83.703 0,25.293 0.6,43.957 1.2,55.402 v 6.621 c 15.06,2.41 48.78,4.219 71.06,4.219 80.69,0 118.03,-51.187 118.03,-163.797 0,-70.453 -15.06,-119.8357 -43.96,-141.5154 -15.65,-11.4414 -42.75,-18.0664 -75.28,-18.0664 l -33.11,0.6015 c -16.86,0.6016 -27.1,0.6016 -31.92,1.8086 -0.6,0 -1.81,0 -4.82,0.6016" /><path
             id="path30"
             style="fill:#231f20;fill-opacity:1;fill-rule:evenodd;stroke:none"
             d="m 1814.36,18.3477 v 48.1757 c -33.13,-15.0546 -65.04,-22.2812 -97.56,-22.2812 -66.24,0 -96.95,37.3359 -96.95,116.8238 v 10.235 l 6.62,0.605 c 11.44,0.602 40.95,0.602 88.53,0.602 56.6,0 90.32,0 101.77,-0.602 l 6.62,-0.605 c 0.6,10.844 0.6,15.66 0.6,25.898 0,41.551 -5.42,63.227 -20.47,82.5 -19.27,24.09 -53.6,36.133 -101.17,36.133 -97.56,0 -142.72,-50.586 -142.72,-158.379 0,-104.1796 46.97,-154.16003 144.53,-154.16003 36.73,0 76.47,5.42187 110.2,15.05473 z m -192.1,187.8863 c 3.61,49.977 27.1,71.657 75.27,71.657 48.78,0 68.65,-19.27 68.65,-67.442 v -4.215 h -5.42 c -10.23,-0.605 -28.9,-0.605 -55.4,-0.605 h -10.24 c -37.94,0 -60.22,0 -66.84,0.605 h -6.02" /><path
             id="path32"
             style="fill:#231f20;fill-opacity:1;fill-rule:evenodd;stroke:none"
             d="m 1904.59,9.91797 h 61.43 v 6.02343 c -1.81,19.2695 -3.01,54.7969 -3.61,106.5856 v 13.25 c 0,51.184 2.41,70.457 11.44,92.133 11.44,28.903 30.7,42.754 56.6,42.754 10.84,0 22.28,-1.805 36.74,-6.023 v 43.363 c -12.65,5.418 -22.89,7.828 -34.93,7.828 -24.09,0 -44.56,-10.238 -57.81,-29.508 -6.63,-9.035 -8.43,-12.648 -16.26,-29.511 v 8.433 l 0.6,37.938 v 6.023 h -54.2 c 0.61,-3.012 0.61,-4.816 0.61,-6.023 0.6,-10.235 1.2,-33.723 1.8,-70.454 l 0.61,-73.472 -0.61,-75.8752 c -0.6,-33.7226 -1.2,-56.6015 -1.8,-67.4414 0,-1.207 0,-3.6133 -0.61,-6.02343" /><path
             id="path34"
             style="fill:#231f20;fill-opacity:1;fill-rule:nonzero;stroke:none"
             d="m 2362.93,9.91797 h 67.44 l 1.2,6.02343 22.29,86.1096 19.87,77.082 c 18.66,68.648 33.72,125.258 40.95,148.14 l 3.01,11.442 3.61,-13.25 17.47,-63.231 c 19.87,-74.07 27.7,-103.578 42.75,-165.6012 8.43,-33.1211 14.45,-59.6133 19.27,-80.6914 l 1.81,-6.02343 h 68.05 l 1.2,6.02343 c 6.03,19.2695 15.05,52.9883 27.7,99.9646 10.84,39.739 19.27,71.055 25.9,94.543 l 30.1,102.973 27.1,92.137 2.41,6.019 h -56.6 l -1.21,-6.019 -18.07,-76.481 -24.69,-99.359 -18.66,-75.879 -18.07,-63.8322 -3.01,-12.043 c -1.8,5.418 -3.01,9.0313 -3.61,11.4415 -1.21,4.2148 -6.62,25.2927 -15.66,61.4217 l -19.87,77.082 -22.88,98.156 -19.27,79.493 c -0.6,1.203 -0.6,3.007 -1.21,6.019 h -72.26 l -1.21,-6.019 c -3.01,-15.055 -9.03,-42.157 -18.66,-82.5 -12.65,-52.395 -21.08,-85.512 -24.69,-98.762 l -19.27,-74.07 -16.87,-62.6293 -3,-11.4414 -3.62,12.0429 c -0.6,3.6172 -6.02,24.0898 -16.26,61.4258 -9.63,36.734 -15.66,60.824 -18.66,72.266 l -22.89,96.351 -20.47,87.317 -1.21,6.019 h -73.47 l 1.81,-6.019 c 21.08,-66.844 35.53,-113.817 57.81,-195.11 l 25.9,-91.535 26.49,-102.9726 1.21,-6.02343" /><path
             id="path36"
             style="fill:#231f20;fill-opacity:1;fill-rule:evenodd;stroke:none"
             d="m 2826.41,9.91797 h 62.02 c -0.61,2.41013 -0.61,4.81643 -0.61,6.02343 -0.6,9.6328 -1.2,31.9141 -1.8,67.4414 l -0.6,75.8752 0.6,73.472 c 0.6,37.934 1.2,61.422 1.8,70.454 0,1.207 0,3.011 0.61,6.023 h -62.02 c 0,-3.012 0,-4.816 0.6,-6.023 0.6,-10.235 0.6,-33.723 1.2,-70.454 l 1.2,-73.472 -1.2,-75.8752 c 0,-33.7226 -0.6,-56.6015 -1.2,-67.4414 -0.6,-1.207 -0.6,-3.6133 -0.6,-6.02343 z m -3.02,388.41403 c 0,-24.09 11.45,-37.336 32.52,-37.336 23.48,0 34.32,12.043 34.32,37.336 0,24.691 -10.84,37.336 -33.12,37.336 -22.27,0 -33.72,-12.645 -33.72,-37.336" /><path
             id="path38"
             style="fill:#231f20;fill-opacity:1;fill-rule:nonzero;stroke:none"
             d="m 2963.88,18.9492 c 40.94,-10.83592 76.48,-15.65623 112,-15.65623 75.28,0 122.85,36.73433 122.85,94.54293 0,26.5001 -10.84,50.5821 -30.71,64.4341 -16.86,12.043 -31.92,18.066 -69.86,28.304 -34.93,9.035 -42.15,11.442 -52.39,16.864 -12.64,6.625 -19.87,17.464 -19.87,30.71 0,24.688 21.68,39.141 58.41,39.141 25.3,0 54.8,-6.625 90.93,-20.476 v 52.996 c -8.43,0 -10.23,0 -22.88,1.203 -34.32,3.613 -57.21,4.82 -74.67,4.82 -67.44,0 -110.21,-33.723 -110.21,-86.113 0,-24.09 10.24,-45.77 28.31,-59.02 13.85,-10.234 27.7,-16.258 57.82,-24.683 18.66,-5.422 31.3,-9.036 36.73,-10.84 9.03,-2.41 16.86,-5.422 24.08,-9.637 5.42,-2.41 9.64,-5.418 13.25,-9.633 6.63,-7.23 10.24,-16.863 10.24,-27.1013 0,-28.3047 -25.29,-45.7656 -66.85,-45.7656 -33.11,0 -65.63,8.4297 -107.18,27.0976 V 18.9492" /><path
             id="path40"
             style="fill:#231f20;fill-opacity:1;fill-rule:nonzero;stroke:none"
             d="m 3256.57,18.9492 c 40.95,-10.83592 76.48,-15.65623 112.01,-15.65623 75.28,0 122.85,36.73433 122.85,94.54293 0,26.5001 -10.84,50.5821 -30.72,64.4341 -16.85,12.043 -31.91,18.066 -69.85,28.304 -34.92,9.035 -42.15,11.442 -52.39,16.864 -12.64,6.625 -19.87,17.464 -19.87,30.71 0,24.688 21.68,39.141 58.41,39.141 25.3,0 54.8,-6.625 90.93,-20.476 v 52.996 c -8.43,0 -10.23,0 -22.88,1.203 -34.32,3.613 -57.2,4.82 -74.67,4.82 -67.44,0 -110.2,-33.723 -110.2,-86.113 0,-24.09 10.24,-45.77 28.3,-59.02 13.85,-10.234 27.7,-16.258 57.81,-24.683 18.67,-5.422 31.31,-9.036 36.74,-10.84 9.03,-2.41 16.86,-5.422 24.09,-9.637 5.41,-2.41 9.63,-5.418 13.25,-9.633 6.62,-7.23 10.23,-16.863 10.23,-27.1013 0,-28.3047 -25.29,-45.7656 -66.84,-45.7656 -33.13,0 -65.64,8.4297 -107.2,27.0976 V 18.9492" /><path
             id="path42"
             style="fill:#231f20;fill-opacity:1;fill-rule:evenodd;stroke:none"
             d="m 3806.41,18.3477 v 48.1757 c -33.12,-15.0546 -65.03,-22.2812 -97.55,-22.2812 -66.24,0 -96.96,37.3359 -96.96,116.8238 v 10.235 l 6.62,0.605 c 11.45,0.602 40.96,0.602 88.53,0.602 56.61,0 90.33,0 101.77,-0.602 l 6.62,-0.605 c 0.6,10.844 0.6,15.66 0.6,25.898 0,41.551 -5.41,63.227 -20.47,82.5 -19.27,24.09 -53.59,36.133 -101.17,36.133 -97.55,0 -142.72,-50.586 -142.72,-158.379 0,-104.1796 46.97,-154.16003 144.53,-154.16003 36.73,0 76.48,5.42187 110.2,15.05473 z m -192.1,187.8863 c 3.61,49.977 27.1,71.657 75.28,71.657 48.77,0 68.65,-19.27 68.65,-67.442 v -4.215 h -5.42 c -10.24,-0.605 -28.91,-0.605 -55.41,-0.605 h -10.23 c -37.94,0 -60.22,0 -66.85,0.605 h -6.02" /><path
             id="path44"
             style="fill:#231f20;fill-opacity:1;fill-rule:evenodd;stroke:none"
             d="m 3896.65,9.91797 h 62.02 l -0.6,6.02343 -0.6,54.1953 -1.21,65.6403 0.61,56.606 c 0,35.527 4.21,51.187 15.05,63.226 13.25,13.852 31.32,20.477 59.02,20.477 23.48,0 39.74,-4.82 51.18,-14.453 13.86,-12.047 18.67,-27.699 18.67,-64.434 l -0.6,-54.195 -1.21,-87.922 v -6.6211 c 0,-18.6679 0,-23.4882 1.81,-38.54293 h 63.83 c -3.61,15.65623 -4.21,21.67973 -4.21,43.95703 -0.61,28.3047 -1.21,70.461 -1.21,102.977 v 30.109 c 0,6.023 0.6,11.445 0.6,17.465 0,42.152 -2.4,55.398 -10.23,69.851 -4.82,9.637 -13.25,18.071 -23.48,24.09 -19.27,12.043 -43.36,17.465 -74.08,17.465 -45.16,0 -77.08,-12.043 -98.76,-36.734 v 6.621 l -0.6,17.465 0.6,6.023 h -56.6 c 0.6,-3.012 0.6,-4.816 0.6,-6.023 0.6,-10.235 1.21,-33.723 1.81,-70.454 l 0.6,-73.472 -0.6,-75.8752 c -0.6,-33.7226 -1.21,-56.6015 -1.81,-67.4414 0,-1.207 0,-3.6133 -0.6,-6.02343" /><path
             id="path46"
             style="fill:#231f20;fill-opacity:1;fill-rule:nonzero;stroke:none"
             d="m 4238.1,18.9492 c 40.95,-10.83592 76.47,-15.65623 112.01,-15.65623 75.27,0 122.84,36.73433 122.84,94.54293 0,26.5001 -10.84,50.5821 -30.71,64.4341 -16.86,12.043 -31.92,18.066 -69.85,28.304 -34.93,9.035 -42.16,11.442 -52.39,16.864 -12.65,6.625 -19.88,17.464 -19.88,30.71 0,24.688 21.68,39.141 58.42,39.141 25.29,0 54.79,-6.625 90.93,-20.476 v 52.996 c -8.43,0 -10.24,0 -22.89,1.203 -34.32,3.613 -57.2,4.82 -74.67,4.82 -67.44,0 -110.2,-33.723 -110.2,-86.113 0,-24.09 10.24,-45.77 28.31,-59.02 13.85,-10.234 27.69,-16.258 57.8,-24.683 18.67,-5.422 31.32,-9.036 36.74,-10.84 9.03,-2.41 16.86,-5.422 24.08,-9.637 5.42,-2.41 9.64,-5.418 13.25,-9.633 6.63,-7.23 10.24,-16.863 10.24,-27.1013 0,-28.3047 -25.29,-45.7656 -66.84,-45.7656 -33.13,0 -65.64,8.4297 -107.19,27.0976 V 18.9492" /><path
             id="path48"
             style="fill:#231f20;fill-opacity:1;fill-rule:nonzero;stroke:none"
             d="m 4760.83,311.012 -6.62,0.605 c -15.66,1.805 -36.73,3.008 -46.37,3.613 -9.03,0.602 -18.07,0.602 -27.7,0.602 -53.59,0 -85.51,-10.238 -107.79,-34.324 -25.89,-28.309 -39.14,-69.856 -39.14,-122.852 0,-52.386 11.44,-90.3279 35.52,-117.4216 24.09,-27.1016 51.79,-37.94143 99.36,-37.94143 33.12,0 64.44,5.42187 93.34,15.65623 v 45.7656 c -21.07,-12.0429 -54.79,-20.4726 -81.89,-20.4726 -56.61,0 -84.91,39.1406 -84.91,116.8238 0,82.504 24.09,115.02 86.11,115.02 25.3,0 52.4,-4.82 80.09,-13.852 v 48.778" /><path
             id="path50"
             style="fill:#231f20;fill-opacity:1;fill-rule:nonzero;stroke:none"
             d="m 4842.86,9.91797 h 62.02 l -0.6,6.02343 c -0.6,15.6563 -1.21,40.9453 -1.21,75.2734 -0.6,33.1212 -0.6,61.4222 -1.2,84.3052 v 6.625 c 0,40.347 4.22,59.015 14.45,71.656 12.05,14.457 32.52,22.285 60.22,22.285 51.79,0 70.46,-20.477 70.46,-76.477 v -4.82 L 5044.59,76.7578 V 62.9102 c 0,-26.4961 0,-33.1172 2.41,-52.99223 h 63.23 c -4.21,36.73433 -5.42,69.85543 -5.42,125.25803 0,22.277 0,46.363 0.6,73.465 v 6.625 c 0,39.14 -4.82,57.808 -18.67,71.66 -18.67,19.269 -49.98,29.508 -89.72,29.508 -40.35,0 -68.05,-9.637 -93.34,-31.918 0,4.82 -0.61,8.433 -0.61,10.238 0,3.613 0.61,24.691 1.21,62.023 l 1.81,75.278 0.6,6.023 h -63.83 l 0.6,-6.023 1.81,-113.813 0.6,-102.976 -0.6,-102.371 -1.81,-96.9536 -0.6,-6.02343" /><path
             id="path52"
             style="fill:#231f20;fill-opacity:1;fill-rule:evenodd;stroke:none"
             d="m 5383.84,59.2969 c 0,-21.0742 1.2,-37.336 3.61,-49.37893 h 53.6 c -6.02,26.49613 -8.43,65.63673 -8.43,133.08603 v 8.426 l 0.6,54.804 v 7.227 c 0,46.965 -3.62,60.816 -19.88,75.875 -19.87,18.668 -47.57,26.496 -96.34,26.496 -16.87,0 -34.93,-1.207 -53,-3.012 -20.47,-2.41 -35.53,-3.613 -45.16,-3.613 -1.21,0 -3.02,0 -5.42,0.602 l -3.01,-49.383 c 36.13,10.84 66.24,15.66 96.95,15.66 48.78,0 68.65,-14.453 68.65,-51.184 v -15.66 -6.621 c -19.87,1.203 -49.38,2.406 -65.04,2.406 -86.11,0 -131.27,-34.328 -131.27,-101.168 0,-65.6363 36.73,-100.56603 105.38,-100.56603 48.78,0 78.28,16.26173 98.76,56.00393 z m -7.83,108.3941 v -3.011 c 0,-30.711 -3.01,-54.797 -8.43,-73.4652 -9.03,-28.9101 -35.53,-47.5742 -68.65,-47.5742 -37.94,0 -60.82,22.8828 -60.82,60.8204 0,45.766 27.7,65.637 91.53,65.637 12.65,0 21.68,0 39.75,-1.805 l 6.62,-0.602" /><path
             id="path54"
             style="fill:#231f20;fill-opacity:1;fill-rule:nonzero;stroke:none"
             d="m 5544.3,9.91797 h 62.03 l -0.61,6.02343 c -0.59,16.2578 -1.2,41.5469 -1.2,75.875 0,30.7106 -0.6,55.9996 -0.6,75.2736 -0.6,28.906 -1.2,47.574 -1.2,56.605 v 46.969 5.422 h 7.22 l 32.52,-0.602 c 22.28,-0.605 26.5,-1.207 40.95,-1.808 l 4.22,36.133 h -5.42 c -17.47,-1.204 -38.55,-1.805 -62.64,-1.805 h -10.84 -6.01 v 6.019 l 0.6,28.907 c 0.6,30.109 1.81,37.336 10.23,46.367 7.83,7.828 18.07,11.441 34.33,11.441 15.05,0 30.11,-2.406 47.57,-7.226 v 45.769 c -6.62,-0.601 -8.43,-0.601 -15.65,-0.601 h -5.42 -27.1 c -34.93,0 -53.6,-3.012 -68.05,-10.84 -21.68,-11.442 -31.32,-34.328 -31.32,-72.266 v -42.152 -4.817 c -3.61,-0.601 -4.81,-0.601 -6.62,-0.601 -2.41,0 -6.02,0 -11.44,0.601 h -10.84 c -1.21,0 -3.01,0.602 -5.42,0.602 v -34.93 l 5.42,0.602 11.44,0.605 12.05,0.602 h 5.41 v -6.023 l -0.6,-49.981 -0.6,-54.801 -1.2,-74.0662 -1.21,-75.2734 V 9.91797" /><path
             id="path56"
             style="fill:#231f20;fill-opacity:1;fill-rule:nonzero;stroke:none"
             d="m 5901.87,12.9297 v 37.9336 c -18.67,-4.8125 -29.51,-6.0156 -41.55,-6.0156 -24.09,0 -36.74,10.2343 -39.15,32.5156 -1.2,10.8359 -1.2,15.6562 -1.8,51.1877 v 40.945 l -0.6,43.965 v 56 5.418 h 6.02 36.13 c 20.47,0 33.12,-0.602 38.54,-0.602 1.8,0 1.8,0 4.21,-0.601 l 4.22,36.734 c -16.86,-1.805 -23.48,-1.805 -46.37,-2.406 l -36.73,-0.602 h -6.02 v 9.633 c 0,3.613 0,13.25 0.6,28.903 l 1.2,40.347 0.6,7.227 -60.21,-16.86 0.6,-4.816 0.6,-33.723 v -24.09 -6.019 h -5.42 -13.85 c -3.61,0.601 -7.83,0.601 -12.65,0.601 l -4.21,0.602 v -34.93 h 4.21 l 15.66,0.602 h 10.84 6.02 v -7.227 l 0.6,-43.957 -0.6,-47.574 -0.6,-43.957 c -1.2,-31.316 -1.81,-51.789 -1.81,-60.8242 0,-45.7656 25.29,-68.04683 75.88,-68.04683 22.88,0 39.75,2.41016 65.64,9.63673" /><path
             id="path58"
             style="fill:#231f20;fill-opacity:1;fill-rule:nonzero;stroke:none"
             d="m 5955.11,18.9492 c 40.94,-10.83592 76.47,-15.65623 112,-15.65623 75.28,0 122.85,36.73433 122.85,94.54293 0,26.5001 -10.84,50.5821 -30.71,64.4341 -16.86,12.043 -31.92,18.066 -69.86,28.304 -34.93,9.035 -42.15,11.442 -52.39,16.864 -12.64,6.625 -19.87,17.464 -19.87,30.71 0,24.688 21.68,39.141 58.41,39.141 25.3,0 54.8,-6.625 90.94,-20.476 v 52.996 c -8.44,0 -10.24,0 -22.89,1.203 -34.32,3.613 -57.21,4.82 -74.67,4.82 -67.45,0 -110.2,-33.723 -110.2,-86.113 0,-24.09 10.24,-45.77 28.3,-59.02 13.85,-10.234 27.7,-16.258 57.81,-24.683 18.67,-5.422 31.31,-9.036 36.73,-10.84 9.04,-2.41 16.87,-5.422 24.09,-9.637 5.42,-2.41 9.64,-5.418 13.25,-9.633 6.62,-7.23 10.24,-16.863 10.24,-27.1013 0,-28.3047 -25.3,-45.7656 -66.84,-45.7656 -33.13,0 -65.64,8.4297 -107.19,27.0976 V 18.9492" /><path
             id="path60"
             style="fill:#231f20;fill-opacity:1;fill-rule:nonzero;stroke:none"
             d="m 6267.68,9.91797 h 62.02 l -0.6,6.02343 c -0.6,16.2578 -1.2,41.5469 -1.2,75.875 0,30.7106 -0.61,55.9996 -0.61,75.2736 -0.6,28.906 -1.2,47.574 -1.2,56.605 v 46.969 5.422 h 7.23 l 32.51,-0.602 c 22.28,-0.605 26.5,-1.207 40.95,-1.808 l 4.22,36.133 h -5.42 c -17.47,-1.204 -38.54,-1.805 -62.63,-1.805 h -10.84 -6.02 v 6.019 l 0.6,28.907 c 0.6,30.109 1.81,37.336 10.24,46.367 7.82,7.828 18.06,11.441 34.32,11.441 15.05,0 30.11,-2.406 47.58,-7.226 v 45.769 c -6.63,-0.601 -8.43,-0.601 -15.66,-0.601 h -5.42 -27.1 c -34.93,0 -53.59,-3.012 -68.04,-10.84 -21.68,-11.442 -31.32,-34.328 -31.32,-72.266 v -42.152 -4.817 c -3.61,-0.601 -4.82,-0.601 -6.63,-0.601 -2.41,0 -6.02,0 -11.44,0.601 h -10.84 c -1.2,0 -3.01,0.602 -5.42,0.602 v -34.93 l 5.42,0.602 11.44,0.605 12.05,0.602 h 5.42 v -6.023 l -0.6,-49.981 -0.6,-54.801 -1.21,-74.0662 -1.2,-75.2734 V 9.91797" /><path
             id="path62"
             style="fill:#231f20;fill-opacity:1;fill-rule:evenodd;stroke:none"
             d="m 6428.34,159.258 c 0,-107.1877 45.76,-156.56659 144.52,-156.56659 98.15,0 145.73,49.37889 145.73,152.95359 0,110.203 -45.17,160.187 -144.53,160.187 -99.96,0 -145.72,-49.383 -145.72,-156.574 z m 62.02,0.601 c 0,82.504 24.09,116.829 82.5,116.829 57.81,0 83.71,-35.528 83.71,-113.817 0,-86.1132 -24.09,-121.0351 -82.51,-121.0351 -59.01,0 -83.7,34.3204 -83.7,118.0231" /><path
             id="path64"
             style="fill:#231f20;fill-opacity:1;fill-rule:evenodd;stroke:none"
             d="m 6794.28,9.91797 h 62.02 l -0.6,6.02343 -0.6,54.1953 -1.21,65.6403 0.61,56.606 c 0,35.527 4.21,51.187 15.05,63.226 13.25,13.852 31.32,20.477 59.02,20.477 23.48,0 39.74,-4.82 51.18,-14.453 13.85,-12.047 18.67,-27.699 18.67,-64.434 l -0.6,-54.195 -1.21,-87.922 v -6.6211 c 0,-18.6679 0,-23.4882 1.81,-38.54293 h 63.83 c -3.61,15.65623 -4.21,21.67973 -4.21,43.95703 -0.61,28.3047 -1.21,70.461 -1.21,102.977 v 30.109 c 0,6.023 0.6,11.445 0.6,17.465 0,42.152 -2.41,55.398 -10.23,69.851 -4.82,9.637 -13.25,18.071 -23.49,24.09 -19.27,12.043 -43.35,17.465 -74.07,17.465 -45.16,0 -77.08,-12.043 -98.76,-36.734 v 6.621 l -0.6,17.465 0.6,6.023 h -56.6 c 0.6,-3.012 0.6,-4.816 0.6,-6.023 0.6,-10.235 1.2,-33.723 1.8,-70.454 l 0.61,-73.472 -0.61,-75.8752 c -0.6,-33.7226 -1.2,-56.6015 -1.8,-67.4414 0,-1.207 0,-3.6133 -0.6,-6.02343" /><path
             id="path66"
             style="fill:#231f20;fill-opacity:1;fill-rule:evenodd;stroke:none"
             d="m 7357.93,58.6914 c 0,-24.082 0.61,-36.7305 2.41,-48.77343 h 56 c -3.61,18.66793 -5.41,38.54293 -7.22,69.85543 -1.2,28.9026 -2.41,86.1096 -2.41,145.1286 0,78.282 1.81,177.645 3.02,208.961 v 4.215 h -61.43 v -4.816 c 0.6,-14.457 1.2,-35.532 1.81,-63.235 0.6,-22.285 1.2,-39.742 1.2,-51.183 v -6.625 l -0.6,-7.227 c -9.03,3.012 -12.05,3.613 -18.07,5.418 -15.05,3.613 -34.32,5.422 -52.39,5.422 -90.93,0 -142.11,-59.019 -142.11,-163.195 0,-99.9651 41.55,-149.34403 125.85,-149.34403 51.8,0 77.08,15.05473 93.94,55.39843 z m -7.22,206.5546 0.6,-6.625 V 232.73 c 0,-31.316 -0.6,-65.039 -1.2,-95.148 -0.61,-18.668 -2.41,-34.926 -6.63,-48.1757 -7.83,-27.7032 -34.32,-45.7657 -66.84,-45.7657 -51.19,0 -75.88,36.7344 -75.88,113.2114 0,80.695 28.91,119.836 88.53,119.836 20.47,0 37.93,-3.614 61.42,-11.442" /><path
             id="path68"
             style="fill:#231f20;fill-opacity:1;fill-rule:nonzero;stroke:none"
             d="m 7485.38,18.9492 c 40.95,-10.83592 76.48,-15.65623 112.01,-15.65623 75.27,0 122.84,36.73433 122.84,94.54293 0,26.5001 -10.84,50.5821 -30.71,64.4341 -16.86,12.043 -31.91,18.066 -69.85,28.304 -34.93,9.035 -42.15,11.442 -52.39,16.864 -12.65,6.625 -19.87,17.464 -19.87,30.71 0,24.688 21.67,39.141 58.41,39.141 25.29,0 54.79,-6.625 90.93,-20.476 v 52.996 c -8.43,0 -10.24,0 -22.89,1.203 -34.32,3.613 -57.2,4.82 -74.66,4.82 -67.45,0 -110.21,-33.723 -110.21,-86.113 0,-24.09 10.24,-45.77 28.31,-59.02 13.84,-10.234 27.7,-16.258 57.8,-24.683 18.67,-5.422 31.32,-9.036 36.74,-10.84 9.04,-2.41 16.86,-5.422 24.09,-9.637 5.42,-2.41 9.63,-5.418 13.25,-9.633 6.62,-7.23 10.23,-16.863 10.23,-27.1013 0,-28.3047 -25.29,-45.7656 -66.84,-45.7656 -33.12,0 -65.64,8.4297 -107.19,27.0976 V 18.9492" /><path
             id="path70"
             style="fill:#231f20;fill-opacity:1;fill-rule:nonzero;stroke:none"
             d="m 7788.32,40.6328 c 0,-24.6914 10.84,-36.73827 32.52,-36.73827 22.88,0 33.72,12.04687 33.72,36.13277 0,25.8907 -10.84,37.9375 -33.12,37.9375 -22.28,0 -33.12,-12.0468 -33.12,-37.332" /></g></g></g></g></svg>