<svg version="1.1" id="Layer_1" xmlns="http://www.w3.org/2000/svg" xmlns:xlink="http://www.w3.org/1999/xlink" x="0px" y="0px"
	 width="84px" height="128px" viewBox="0 0 84 128" style="enable-background:new 0 0 84 128;" xml:space="preserve">


<symbol id="pin" fill="currentColor">
		<path id="XMLID_22_" fill="currentColor" d="M61.3,11.5c-6-4-12.9-6.1-20-6.1c-7.1,0-14,2.1-20,6.1C5.7,21.9,0.7,42.2,9.7,58.7l31.6,58
			l31.6-58C82,42.2,77,21.9,61.3,11.5z"/>
		<path id="XMLID_15_" fill="#666666" d="M41.4,5.4c7.1,0,14,2.1,20,6.1C77,21.9,82,42.2,73,58.7l-31.6,58l-31.6-58
			c-9-16.5-4-36.8,11.6-47.2C27.3,7.5,34.2,5.4,41.4,5.4 M41.4,0c-8,0-16,2.3-23,7C0.4,19-5.4,42.3,5,61.3L41.4,128l36.4-66.7
			C88.1,42.3,82.3,19,64.3,7C57.4,2.3,49.4,0,41.4,0L41.4,0z"/>
		<path id="XMLID_20_" fill="#666666" d="M41.4,19.9c-9.7,0-17.7,7.9-17.7,17.7s7.9,17.7,17.7,17.7S59,47.3,59,37.5
			S51.1,19.9,41.4,19.9z M41.4,49.8c-6.8,0-12.3-5.5-12.3-12.3c0-6.8,5.5-12.3,12.3-12.3c6.8,0,12.3,5.5,12.3,12.3
			C53.6,44.3,48.1,49.8,41.4,49.8z"/>
		<path id="XMLID_1_" fill="#a7a7a7" d="M41.4,49.8c-6.8,0-12.3-5.5-12.3-12.3s5.5-12.3,12.3-12.3s12.3,5.5,12.3,12.3
			S48.1,49.8,41.4,49.8z"/>

</symbol>
</svg>
