<?xml version="1.0" encoding="utf-8"?>
<!-- Generator: Adobe Illustrator 19.0.0, SVG Export Plug-In . SVG Version: 6.00 Build 0)  -->
<svg version="1.1" id="Layer_1" xmlns="http://www.w3.org/2000/svg" xmlns:xlink="http://www.w3.org/1999/xlink" x="0px" y="0px"
	 width="142.1px" height="32.6px" viewBox="-349 580 142.1 32.6" style="enable-background:new -349 580 142.1 32.6;"
	 xml:space="preserve">
<style type="text/css">
	.st0{fill:#FFFFFF;}
	.st1{fill:#A67481;}
</style>
<g id="XMLID_2_">
	<g id="XMLID_8_">
		<g id="XMLID_58_">
			<path id="XMLID_85_" class="st0" d="M-338.6,589.2c1.1,0,2,0.4,2.6,1l-1,1.3c-0.5-0.4-0.9-0.6-1.5-0.6c-1.4,0-2.4,1.2-2.4,2.9
				s1,2.9,2.3,2.9c0.7,0,1.3-0.4,1.8-0.7l0.9,1.3c-0.8,0.7-1.9,1.1-2.9,1.1c-2.4,0-4.2-1.7-4.2-4.6
				C-343,590.8-341,589.2-338.6,589.2z"/>
			<path id="XMLID_71_" class="st0" d="M-329.6,592.5c0-0.9-0.4-1.7-1.6-1.7c-0.9,0-1.7,0.4-2.5,0.9l-0.7-1.4c1-0.6,2.2-1.1,3.6-1.1
				c2.2,0,3.3,1.3,3.3,3.8v5.2h-1.7l-0.2-1h-0.1c-0.8,0.7-1.7,1.2-2.7,1.2c-1.5,0-2.6-1-2.6-2.6
				C-334.8,593.9-333.2,592.9-329.6,592.5z M-331.5,596.7c0.7,0,1.3-0.4,1.9-1v-2c-2.4,0.3-3.2,0.9-3.2,1.8
				C-332.8,596.4-332.3,596.7-331.5,596.7z"/>
			<path id="XMLID_69_" class="st0" d="M-325.1,589.4h1.7l0.1,1.2h0.1c0.7-0.8,1.6-1.4,2.7-1.4c1.3,0,2,0.6,2.4,1.6
				c0.8-0.9,1.7-1.6,2.8-1.6c1.9,0,2.7,1.3,2.7,3.5v5.5h-2.1V593c0-1.4-0.4-2-1.3-2c-0.6,0-1.2,0.4-1.8,1.1v6.1h-2v-5.2
				c0-1.4-0.4-2-1.4-2c-0.5,0-1.2,0.4-1.8,1.1v6.1h-2v-8.8L-325.1,589.4L-325.1,589.4z"/>
			<path id="XMLID_66_" class="st0" d="M-308,598.8v2.7h-2v-12.2h1.7l0.1,0.9h0.1c0.7-0.6,1.7-1.1,2.6-1.1c2.2,0,3.4,1.7,3.4,4.4
				c0,3-1.8,4.7-3.7,4.7c-0.8,0-1.5-0.4-2.2-1V598.8z M-306.3,596.5c1.2,0,2-1,2-3c0-1.7-0.6-2.8-1.9-2.8c-0.6,0-1.2,0.3-1.9,1v4.1
				C-307.4,596.4-306.8,596.5-306.3,596.5z"/>
			<path id="XMLID_62_" class="st0" d="M-300.1,589.4h2v5.2c0,1.4,0.4,2,1.4,2c0.8,0,1.3-0.4,1.9-1.2v-6h2v8.7h-1.7l-0.2-1.3h-0.1
				c-0.8,0.9-1.6,1.5-2.8,1.5c-1.9,0-2.7-1.3-2.7-3.5v-5.4H-300.1z"/>
			<path id="XMLID_59_" class="st0" d="M-290.1,595.8c0.8,0.6,1.5,1,2.4,1s1.4-0.4,1.4-1.1c0-0.7-0.9-1-1.9-1.4
				c-1.2-0.4-2.5-1.1-2.5-2.5c0-1.5,1.2-2.6,3.2-2.6c1.2,0,2.2,0.5,2.9,1.1l-0.9,1.2c-0.6-0.4-1.2-0.7-1.9-0.7c-0.9,0-1.3,0.4-1.3,1
				c0,0.7,0.9,1,1.8,1.3c1.2,0.4,2.5,1,2.5,2.7c0,1.5-1.2,2.7-3.4,2.7c-1.2,0-2.5-0.5-3.3-1.2L-290.1,595.8z"/>
		</g>
		<g id="XMLID_10_">
			<path id="XMLID_56_" class="st0" d="M-257.4,601.9v0.6h-4.1v-0.6l1.3-0.2c0-0.9,0-2,0-2.8v-1.7c0-1.7-0.5-2.1-1.5-2.1
				c-0.7,0-1.5,0.3-2.4,1.1c0,0.3,0,0.6,0,0.9v1.7c0,0.8,0,2,0,2.8l1.2,0.2v0.6h-4.1v-0.6l1.3-0.2c0-0.9,0-2,0-2.8v-1.6
				c0-1.6-0.4-2.2-1.5-2.2c-0.8,0-1.5,0.3-2.4,1.1v2.7c0,0.8,0,2,0,2.8l1.2,0.2v0.6h-4.1v-0.6l1.3-0.2c0-0.9,0-2,0-2.8v-0.9
				c0-1,0-1.5-0.1-2.2l-1.4-0.2v-0.6l2.5-1.1l0.3,0.2l0.1,1.4c0.9-0.9,2-1.6,3.1-1.6s1.8,0.5,2.1,1.7c0.9-1.1,2.1-1.7,3.2-1.7
				c1.4,0,2.3,0.9,2.3,3.1v1.9c0,0.8,0,2,0,2.8L-257.4,601.9z"/>
			<path id="XMLID_53_" class="st0" d="M-254,598.2c0,2.2,1.2,3.4,2.9,3.4c1.1,0,1.8-0.5,2.5-1.2l0.4,0.3c-0.7,1.3-1.8,2.1-3.4,2.1
				c-2.4,0-4-1.7-4-4.4s1.9-4.6,4.1-4.6c1.9,0,3.3,1.3,3.3,3.4c0,0.4-0.1,0.7-0.1,1H-254z M-250.7,597.5c0.9,0,1.1-0.4,1.1-0.9
				c0-1-0.8-1.9-1.9-1.9c-1,0-2.2,0.8-2.3,2.8L-250.7,597.5L-250.7,597.5z"/>
			<path id="XMLID_50_" class="st0" d="M-237.1,601.9v0.6l-2.8,0.2l-0.1-1.2c-0.6,0.8-1.4,1.3-2.5,1.3c-2.2,0-3.6-1.8-3.6-4.4
				c0-2.7,1.6-4.6,3.8-4.6c0.9,0,1.6,0.3,2.3,1.2v-3.8l-1.5-0.2v-0.6l2.8-0.8l0.2,0.1l-0.1,2.5v9.4L-237.1,601.9z M-240,595.8
				c-0.8-0.7-1.4-0.9-2-0.9c-1.3,0-2.5,1.1-2.5,3.5c0,2.3,1.1,3.4,2.5,3.4c0.8,0,1.3-0.3,2-1V595.8z"/>
			<path id="XMLID_15_" class="st0" d="M-231.6,601.9v0.6h-4.1v-0.6l1.3-0.2c0-0.9,0-2,0-2.8V598c0-1,0-1.5-0.1-2.2l-1.4-0.2V595
				l2.8-1.1l0.3,0.2l-0.1,2.4v2.4c0,0.8,0,2,0,2.8L-231.6,601.9z M-234.9,590.8c0-0.7,0.5-1.1,1.2-1.1c0.7,0,1.2,0.4,1.2,1.1
				c0,0.7-0.5,1.1-1.2,1.1C-234.3,591.9-234.9,591.4-234.9,590.8z"/>
			<path id="XMLID_13_" class="st0" d="M-220.9,601.9v0.6l-2.5,0.2l-0.2-1.6c-1,1.2-2.1,1.7-3.1,1.7c-1.4,0-2.3-0.9-2.3-3.2l0.1-4.5
				l-1.3-0.3v-0.6l2.6-0.2l0.2,0.2l-0.1,2.5v2.8c0,1.5,0.5,2.1,1.4,2.1c0.8,0,1.7-0.4,2.5-1.1l0.1-5.2l-1.3-0.3v-0.8l2.6-0.2
				l0.2,0.2l-0.1,2.5v5L-220.9,601.9z"/>
			<path id="XMLID_11_" class="st0" d="M-215.2,597.5c1.8,0.7,2.4,1.5,2.4,2.6c0,1.3-1.2,2.6-3.5,2.6c-1,0-1.8-0.2-2.7-0.7l-0.1-2h1
				l0.3,1.5c0.4,0.2,0.9,0.3,1.4,0.3c1.4,0,2-0.6,2-1.4c0-0.7-0.6-1.2-1.7-1.6l-0.8-0.3c-1.3-0.5-2.2-1.2-2.2-2.4
				c0-1.4,1.2-2.6,3.1-2.6c1,0,1.7,0.3,2.5,0.7l-0.1,1.8h-0.9l-0.3-1.4c-0.4-0.2-0.8-0.3-1.2-0.3c-1.1,0-1.7,0.5-1.7,1.3
				c0,0.7,0.4,1,1.6,1.5L-215.2,597.5z"/>
		</g>
	</g>
	<g id="XMLID_5_">
		<rect id="XMLID_7_" x="-279.2" y="584.2" class="st1" width="2" height="24.2"/>
	</g>
</g>
</svg>
