<?xml version="1.0" encoding="UTF-8"?>
<!DOCTYPE svg PUBLIC '-//W3C//DTD SVG 1.1//EN' 'http://www.w3.org/Graphics/SVG/1.1/DTD/svg11.dtd'>
<svg viewBox="0 0 172.59 74.791" xmlns="http://www.w3.org/2000/svg">
 <clipPath id="a">
  <path d="m0 0h595.28v841.89h-595.28z"/>
 </clipPath>
 <path d="m86.297 74.791h-86.297v-5.753h86.297zm86.293-69.038h-86.297v-5.753h86.297z" fill="#2c55a2"/>
 <g transform="matrix(1.3333 0 0 -1.3333 -310.55 375.85)" clip-path="url(#a)">
  <path d="m246.73 262.61c5.377 0 9.677-4.402 9.677-9.87s-4.3-9.816-9.677-9.816c-5.376 0-9.65 4.348-9.65 9.816s4.274 9.87 9.65 9.87m0-16.952c3.844 0 6.99 3.172 6.99 7.082 0 3.882-3.146 7.136-6.99 7.136-3.817 0-6.962-3.254-6.962-7.136 0-3.91 3.145-7.082 6.962-7.082m9.1-1.888 8.253 18.401c.08.164.322.301.457.301h.268c.135 0 .376-.137.457-.301l8.199-18.401c.162-.355-.053-.711-.457-.711h-1.693c-.323 0-.511.164-.618.41l-1.667 3.746h-8.791c-.537-1.258-1.102-2.488-1.639-3.746-.081-.191-.296-.41-.618-.41h-1.694c-.403 0-.618.356-.457.711m12.177 5.797-3.306 7.491h-.135l-3.279-7.491zm2.843 12.243c-.108.383.107.656.484.656h1.801c.215 0 .43-.191.483-.383l3.253-12.549h.108l4.381 12.905c.054.164.242.301.457.301h.484c.215 0 .404-.137.457-.301l4.436-12.905h.107l3.199 12.549c.054.192.269.383.484.383h1.801c.376 0 .591-.273.484-.656l-5.081-18.374c-.053-.218-.269-.383-.483-.383h-.431c-.188 0-.403.137-.457.301l-4.731 13.589h-.134l-4.651-13.589c-.053-.164-.269-.301-.457-.301h-.43c-.215 0-.43.165-.484.383zm-25.68 3.59c0-.356-.289-.645-.646-.645h-1.72c-.356 0-.645.289-.645.645v1.721c0 .356.289.645.645.645h1.72c.357 0 .646-.289.646-.645zm6.15 0c0-.356-.289-.645-.645-.645h-1.721c-.356 0-.645.289-.645.645v1.721c0 .356.289.645.645.645h1.721c.356 0 .645-.289.645-.645zm53.39-2.87c1.232 0 2.217-.992 2.217-2.224s-.985-2.211-2.217-2.211c-1.233 0-2.212.979-2.212 2.211s.979 2.224 2.212 2.224m-1.252.795c0 .24.192.431.432.431.241 0 .437-.191.437-.431s-.196-.438-.437-.438c-.24 0-.432.198-.432.438m1.252-4.245c.677 0 1.232.555 1.232 1.226 0 .678-.555 1.239-1.232 1.239-.673 0-1.227-.561-1.227-1.239 0-.671.554-1.226 1.227-1.226m.381 4.245c0 .24.192.431.432.431s.437-.191.437-.431-.197-.438-.437-.438-.432.198-.432.438m2.339-4.585.29.511c.049.081.166.068.209.037.025-.013.468-.339.874-.339.247 0 .426.155.426.37 0 .259-.216.456-.635.622-.529.21-1.194.623-1.194 1.362 0 .609.473 1.226 1.422 1.226.641 0 1.133-.327 1.319-.462.073-.043.061-.155.037-.198l-.315-.474c-.043-.067-.154-.123-.209-.08-.055.031-.505.37-.881.37-.222 0-.389-.148-.389-.314 0-.228.186-.401.672-.598.481-.191 1.245-.567 1.245-1.404 0-.635-.549-1.276-1.454-1.276-.801 0-1.245.333-1.386.475-.061.061-.08.086-.031.172m4.17 2.83h-.882c-.066 0-.116.056-.116.117v.672c0 .061.05.117.116.117h2.736c.067 0 .117-.056.117-.117v-.672c0-.061-.05-.117-.117-.117h-.881v-3.29c0-.061-.055-.117-.117-.117h-.739c-.062 0-.117.056-.117.117zm2.59.78c0 .061.049.117.117.117h2.551c.067 0 .117-.056.117-.117v-.671c0-.062-.05-.118-.117-.118h-1.707v-.763h1.404c.062 0 .117-.056.117-.118v-.671c0-.068-.055-.117-.117-.117h-1.404v-.832h1.707c.067 0 .117-.055.117-.117v-.672a.117.117 0 0 0 -.117-.116h-2.551c-.068 0-.117.055-.117.116zm3.61 0c0 .061.049.117.117.117h1.842c.739 0 1.343-.598 1.343-1.331 0-.566-.376-1.022-.912-1.238l.844-1.565c.043-.079 0-.178-.105-.178h-.819c-.049 0-.087.03-.098.055l-.82 1.632h-.425v-1.571c0-.061-.056-.116-.117-.116h-.733c-.068 0-.117.055-.117.116zm1.879-1.725c.252 0 .468.234.468.493s-.216.468-.468.468h-.912v-.961zm2.251 1.725c0 .061.049.117.118.117h1.841c.739 0 1.343-.598 1.343-1.331 0-.566-.376-1.022-.911-1.238l.844-1.565c.042-.079 0-.178-.106-.178h-.819c-.049 0-.086.03-.098.055l-.82 1.632h-.425v-1.571c0-.061-.055-.116-.117-.116h-.732c-.069 0-.118.055-.118.116zm1.879-1.725c.253 0 .468.234.468.493s-.215.468-.468.468h-.912v-.961zm2.201 1.725c0 .061.049.117.117.117h2.55c.069 0 .118-.056.118-.117v-.671c0-.062-.049-.118-.118-.118h-1.706v-.763h1.405c.061 0 .117-.056.117-.118v-.671c0-.068-.056-.117-.117-.117h-1.405v-.832h1.706c.069 0 .118-.055.118-.117v-.672c0-.061-.049-.116-.118-.116h-2.55c-.068 0-.117.055-.117.116zm3.61 0c0 .061.055.117.117.117h.739c.061 0 .118-.056.118-.117v-4.079c0-.061-.057-.116-.118-.116h-.739c-.062 0-.117.055-.117.116zm3.95.18c.616 0 1.072-.191 1.49-.573.056-.049.056-.123.007-.172l-.481-.499c-.042-.044-.11-.044-.154 0-.227.203-.53.314-.831.314-.697 0-1.207-.579-1.207-1.269 0-.684.517-1.251 1.213-1.251.29 0 .604.105.825.296.044.037.124.037.16-.006l.481-.512c.043-.043.037-.123-.006-.166-.42-.406-.949-.597-1.497-.597-1.232 0-2.224.979-2.224 2.211s.992 2.224 2.224 2.224m2.23-.18c0 .061.055.117.117.117h.733c.068 0 .117-.056.117-.117v-1.552h1.762v1.552c0 .061.049.117.117.117h.733c.061 0 .117-.056.117-.117v-4.079c0-.061-.056-.116-.117-.116h-.733c-.068 0-.117.055-.117.116v1.621h-1.762v-1.621c0-.061-.049-.116-.117-.116h-.733c-.062 0-.117.055-.117.116zm4.76 0c0 .061.056.117.118.117h.739c.062 0 .117-.056.117-.117v-4.079c0-.061-.055-.116-.117-.116h-.739c-.062 0-.118.055-.118.116zm1.79-3.61.289.511c.05.081.167.068.21.037.025-.013.468-.339.875-.339.246 0 .425.155.425.37 0 .259-.215.456-.635.622-.529.21-1.195.623-1.195 1.362 0 .609.475 1.226 1.423 1.226.641 0 1.134-.327 1.319-.462.074-.043.061-.155.036-.198l-.314-.474c-.043-.067-.154-.123-.209-.08-.055.031-.505.37-.881.37-.222 0-.388-.148-.388-.314 0-.228.184-.401.671-.598.481-.191 1.244-.567 1.244-1.404 0-.635-.547-1.276-1.453-1.276-.801 0-1.244.333-1.387.475-.061.061-.079.086-.03.172m5.53 3.79c.617 0 1.072-.191 1.491-.573.056-.049.056-.123.006-.172l-.48-.499a.1052.1052 0 0 0 -.153 0c-.229.203-.531.314-.833.314-.696 0-1.208-.579-1.208-1.269 0-.684.518-1.251 1.214-1.251.289 0 .603.105.827.296.042.037.122.037.159-.006l.48-.512c.044-.043.038-.123-.006-.166-.419-.406-.948-.597-1.497-.597-1.232 0-2.223.979-2.223 2.211s.991 2.224 2.223 2.224m2.24-.18c0 .061.055.117.117.117h.733c.068 0 .117-.056.117-.117v-1.552h1.762v1.552c0 .061.05.117.117.117h.733c.062 0 .117-.056.117-.117v-4.079c0-.061-.055-.116-.117-.116h-.733a.117.117 0 0 0 -.117.116v1.621h-1.762v-1.621c0-.061-.049-.116-.117-.116h-.733c-.062 0-.117.055-.117.116zm4.6 0c0 .061.049.117.117.117h2.55c.068 0 .117-.056.117-.117v-.671c0-.062-.049-.118-.117-.118h-1.707v-.763h1.405c.062 0 .118-.056.118-.118v-.671c0-.068-.056-.117-.118-.117h-1.405v-.832h1.707c.068 0 .117-.055.117-.117v-.672c0-.061-.049-.116-.117-.116h-2.55c-.068 0-.117.055-.117.116zm-47.18-11.58 1.929 4.147c.018.036.061.067.104.067h.062c.043 0 .086-.031.105-.067l1.928-4.147c.037-.08-.012-.16-.105-.16h-.684c-.111 0-.16.037-.215.154l-.222.487h-1.676l-.222-.493c-.03-.074-.098-.148-.222-.148h-.677c-.093 0-.142.08-.105.16m2.532 1.319-.468 1.017h-.006l-.462-1.017zm2.108 2.681c0 .08.061.148.148.148h.721c.08 0 .148-.068.148-.148v-1.62l1.367 1.706c.025.031.081.062.117.062h.777c.117 0 .178-.135.111-.228l-1.442-1.805 1.571-2.045c.068-.093 0-.229-.117-.229h-.851c-.042 0-.098.026-.11.043l-1.423 1.935v-1.835c0-.081-.068-.148-.148-.148h-.721c-.087 0-.148.067-.148.148zm3.77-4 1.928 4.147c.019.036.061.067.105.067h.061c.043 0 .086-.031.105-.067l1.928-4.147c.037-.08-.012-.16-.105-.16h-.684c-.111 0-.16.037-.215.154l-.221.487h-1.676l-.223-.493c-.03-.074-.098-.148-.221-.148h-.678c-.093 0-.142.08-.104.16m2.531 1.319-.468 1.017h-.006l-.462-1.017zm1.919 2.711c0 .061.049.117.111.117h1.503c1.189 0 2.162-.967 2.162-2.15 0-1.196-.973-2.162-2.162-2.162h-1.503c-.062 0-.111.055-.111.116zm1.552-3.284c.697 0 1.202.549 1.202 1.251 0 .696-.505 1.244-1.202 1.244h-.59v-2.495zm2.978 3.284c0 .061.05.117.117.117h2.551c.068 0 .117-.056.117-.117v-.672c0-.061-.049-.117-.117-.117h-1.706v-.764h1.404c.062 0 .117-.055.117-.117v-.671c0-.068-.055-.117-.117-.117h-1.404v-.832h1.706c.068 0 .117-.055.117-.117v-.672c0-.061-.049-.116-.117-.116h-2.551a.117.117 0 0 0 -.117.116zm4.04.08c.006.056.063.099.111.099h.099c.031 0 .087-.025.105-.062l1.43-2.661h.012l1.429 2.661c.018.037.074.062.104.062h.099c.049 0 .105-.043.111-.099l.696-4.14c.012-.08-.043-.135-.117-.135h-.727c-.056 0-.111.049-.118.099l-.277 1.903h-.011l-1.036-1.996c-.018-.037-.074-.068-.104-.068h-.111c-.038 0-.087.031-.105.068l-1.042 1.996h-.012l-.271-1.903c-.006-.05-.055-.099-.117-.099h-.727c-.073 0-.129.055-.117.135zm4.98-.08c0 .061.055.117.117.117h.738c.063 0 .117-.056.117-.117v-4.079c0-.061-.054-.116-.117-.116h-.738c-.062 0-.117.055-.117.116zm2.03 0c0 .061.049.117.117.117h2.55a.118.118 0 0 0 .118-.117v-.672a.118.118 0 0 0 -.118-.117h-1.705v-.764h1.404c.061 0 .117-.055.117-.117v-.671c0-.068-.056-.117-.117-.117h-1.404v-.832h1.705c.068 0 .118-.055.118-.117v-.672c0-.061-.05-.116-.118-.116h-2.55c-.068 0-.117.055-.117.116zm4.98 0c0 .061.049.117.111.117h1.504c1.188 0 2.161-.967 2.161-2.15 0-1.196-.973-2.162-2.161-2.162h-1.504c-.062 0-.111.055-.111.116zm1.552-3.284c.696 0 1.202.549 1.202 1.251 0 .696-.506 1.244-1.202 1.244h-.592v-2.495zm2.978 3.284c0 .061.05.117.117.117h2.551c.068 0 .117-.056.117-.117v-.672c0-.061-.049-.117-.117-.117h-1.707v-.764h1.405c.061 0 .117-.055.117-.117v-.671c0-.068-.056-.117-.117-.117h-1.405v-.832h1.707c.068 0 .117-.055.117-.117v-.672c0-.061-.049-.116-.117-.116h-2.551a.117.117 0 0 0 -.117.116zm3.61 0c0 .061.05.117.118.117h1.842c.739 0 1.343-.597 1.343-1.331 0-.566-.377-1.022-.912-1.238l.844-1.565c.043-.08 0-.178-.105-.178h-.819c-.05 0-.087.031-.099.055l-.819 1.632h-.426v-1.571c0-.061-.055-.116-.116-.116h-.733c-.068 0-.118.055-.118.116zm1.879-1.725c.253 0 .468.234.468.493 0 .258-.215.468-.468.468h-.912v-.961zm-47.699-5.855c-.025.086.025.148.11.148h.722c.049 0 .098-.043.111-.086l.529-2.089h.025l.955 2.169c.018.037.055.068.105.068h.111c.055 0 .092-.031.104-.068l.955-2.169h.025l.529 2.089c.013.043.062.086.111.086h.72c.088 0 .137-.062.112-.148l-1.164-4.14c-.012-.049-.062-.086-.111-.086h-.099c-.043 0-.086.031-.104.068l-1.127 2.519h-.019l-1.122-2.519c-.018-.037-.061-.068-.104-.068h-.099c-.05 0-.098.037-.11.086zm5.89.03c0 .061.055.117.116.117h.74c.062 0 .117-.056.117-.117v-4.078c0-.062-.055-.117-.117-.117h-.74c-.061 0-.116.055-.116.117zm1.78-3.61.289.512c.05.08.166.067.21.037.024-.013.468-.34.875-.34.246 0 .425.154.425.37 0 .259-.216.456-.635.622-.529.21-1.195.622-1.195 1.362 0 .61.474 1.226 1.423 1.226.641 0 1.134-.327 1.319-.462.074-.043.061-.154.036-.197l-.313-.474c-.044-.068-.155-.124-.21-.081-.056.031-.505.37-.881.37-.222 0-.389-.148-.389-.314 0-.228.186-.401.672-.598.481-.191 1.244-.567 1.244-1.405 0-.634-.548-1.275-1.453-1.275-.801 0-1.245.333-1.386.475-.062.062-.081.086-.031.172m3.38 0 .289.512c.05.08.167.067.209.037.025-.013.469-.34.876-.34.246 0 .424.154.424.37 0 .259-.215.456-.634.622-.53.21-1.194.622-1.194 1.362 0 .61.473 1.226 1.422 1.226.641 0 1.134-.327 1.319-.462.073-.043.061-.154.036-.197l-.314-.474c-.042-.068-.154-.124-.209-.081-.055.031-.505.37-.882.37-.221 0-.387-.148-.387-.314 0-.228.185-.401.671-.598.48-.191 1.245-.567 1.245-1.405 0-.634-.549-1.275-1.454-1.275-.801 0-1.245.333-1.386.475-.061.062-.081.086-.031.172m3.62 3.61c0 .061.049.117.117.117h2.551c.067 0 .117-.056.117-.117v-.672c0-.062-.05-.117-.117-.117h-1.707v-.763h1.405c.062 0 .117-.056.117-.118v-.671c0-.068-.055-.117-.117-.117h-1.405v-.832h1.707c.067 0 .117-.055.117-.117v-.671c0-.062-.05-.117-.117-.117h-2.551c-.068 0-.117.055-.117.117zm3.61.07c0 .062.055.111.116.111h.154l2.459-2.366h.006v2.187c0 .062.049.118.117.118h.739c.062 0 .117-.056.117-.118v-4.146c0-.061-.055-.111-.117-.111h-.098c-.019 0-.068.019-.081.031l-2.433 2.446h-.006v-2.298c0-.062-.049-.117-.117-.117h-.733c-.062 0-.117.055-.117.117zm4.52-3.68.29.512c.049.08.165.067.209.037.025-.013.468-.34.875-.34.246 0 .425.154.425.37 0 .259-.215.456-.635.622-.529.21-1.195.622-1.195 1.362 0 .61.474 1.226 1.423 1.226.641 0 1.134-.327 1.319-.462.074-.043.061-.154.037-.197l-.315-.474c-.043-.068-.153-.124-.209-.081-.055.031-.506.37-.881.37-.222 0-.389-.148-.389-.314 0-.228.186-.401.672-.598.481-.191 1.245-.567 1.245-1.405 0-.634-.548-1.275-1.454-1.275-.802 0-1.244.333-1.386.475-.062.062-.08.086-.031.172m5.53 3.79c.616 0 1.072-.191 1.491-.573.055-.05.055-.124.005-.173l-.48-.499a.108.108 0 0 0 -.154 0c-.227.204-.53.314-.831.314-.696 0-1.208-.579-1.208-1.269 0-.683.518-1.25 1.213-1.25.291 0 .605.104.826.296.043.037.124.037.16-.007l.481-.511c.043-.043.037-.123-.007-.167-.418-.406-.948-.597-1.496-.597-1.232 0-2.224.979-2.224 2.212 0 1.232.992 2.224 2.224 2.224m2.24-.18c0 .061.056.117.117.117h.733c.068 0 .117-.056.117-.117v-1.552h1.762v1.552c0 .061.049.117.118.117h.733c.061 0 .117-.056.117-.117v-4.078c0-.062-.056-.117-.117-.117h-.733c-.069 0-.118.055-.118.117v1.62h-1.762v-1.62c0-.062-.049-.117-.117-.117h-.733c-.061 0-.117.055-.117.117zm4.2-4.04 1.928 4.147c.019.036.062.067.105.067h.062c.042 0 .086-.031.104-.067l1.929-4.147c.036-.079-.013-.16-.105-.16h-.684c-.112 0-.16.037-.216.154l-.222.486h-1.675l-.222-.492c-.031-.074-.099-.148-.222-.148h-.678c-.092 0-.141.081-.104.16m2.532 1.319-.468 1.016h-.006l-.462-1.016zm2.098 2.721c0 .061.049.117.117.117h2.552c.067 0 .116-.056.116-.117v-.672c0-.062-.049-.117-.116-.117h-1.708v-.887h1.404c.063 0 .118-.055.118-.116v-.673c0-.061-.055-.116-.118-.116h-1.404v-1.497c0-.062-.055-.117-.117-.117h-.727c-.068 0-.117.055-.117.117zm4.22-.79h-.881c-.068 0-.117.055-.117.117v.672c0 .061.049.117.117.117h2.735c.068 0 .117-.056.117-.117v-.672c0-.062-.049-.117-.117-.117h-.88v-3.29c0-.062-.056-.117-.118-.117h-.738c-.063 0-.118.055-.118.117zm2.51.79c0 .061.05.117.117.117h2.551c.067 0 .117-.056.117-.117v-.672c0-.062-.05-.117-.117-.117h-1.707v-.763h1.404c.062 0 .119-.056.119-.118v-.671c0-.068-.057-.117-.119-.117h-1.404v-.832h1.707c.067 0 .117-.055.117-.117v-.671c0-.062-.05-.117-.117-.117h-2.551c-.067 0-.117.055-.117.117zm3.61.07c0 .062.055.111.118.111h.153l2.458-2.366h.006v2.187c0 .062.05.118.117.118h.739c.062 0 .117-.056.117-.118v-4.146c0-.061-.055-.111-.117-.111h-.097c-.019 0-.068.019-.081.031l-2.434 2.446h-.005v-2.298c0-.062-.05-.117-.117-.117h-.734c-.062 0-.117.055-.117.117z"/>
 </g>
</svg>
