<?xml version="1.0" encoding="UTF-8" standalone="no"?>
<svg
   xmlns:dc="http://purl.org/dc/elements/1.1/"
   xmlns:cc="http://creativecommons.org/ns#"
   xmlns:rdf="http://www.w3.org/1999/02/22-rdf-syntax-ns#"
   xmlns:svg="http://www.w3.org/2000/svg"
   xmlns="http://www.w3.org/2000/svg"
   viewBox="0 0 376.81332 151.56"
   height="151.56"
   width="376.81332"
   xml:space="preserve"
   id="svg2"
   version="1.1"><metadata
     id="metadata8"><rdf:RDF><cc:Work
         rdf:about=""><dc:format>image/svg+xml</dc:format><dc:type
           rdf:resource="http://purl.org/dc/dcmitype/StillImage" /></cc:Work></rdf:RDF></metadata><defs
     id="defs6" /><g
     transform="matrix(1.3333333,0,0,-1.3333333,0,151.56)"
     id="g10"><g
       transform="scale(0.1)"
       id="g12"><path
         id="path14"
         style="fill:#ee252c;fill-opacity:1;fill-rule:nonzero;stroke:none"
         d="M 411.008,742.125 V 1125.06 H 0 C 0,991.926 10.1133,862.734 28.6523,742.125 H 411.008" /><path
         id="path16"
         style="fill:#ee252c;fill-opacity:1;fill-rule:nonzero;stroke:none"
         d="M 411.008,621.52 H 50.6133 C 119.676,294.414 253.094,50.8516 411.008,-0.0117188 V 621.52" /><path
         id="path18"
         style="fill:#ee252c;fill-opacity:1;fill-rule:nonzero;stroke:none"
         d="m 531.621,742.125 v 382.935 h 411 c 0,-133.134 -10.105,-262.326 -28.652,-382.935 H 531.621" /><path
         id="path20"
         style="fill:#ee252c;fill-opacity:1;fill-rule:nonzero;stroke:none"
         d="M 531.621,621.52 H 892.012 C 822.945,294.414 689.531,50.8516 531.621,-0.0117188 V 621.52" /><path
         id="path22"
         style="fill:#202022;fill-opacity:1;fill-rule:nonzero;stroke:none"
         d="m 1393.51,626.246 c -24.25,0 -47.41,3.359 -69.48,10.07 -22.09,6.704 -43.95,17.207 -65.59,31.493 l 12.98,83.773 h 3.25 c 20.78,-15.586 41.45,-26.523 62.02,-32.793 20.56,-6.281 39.5,-9.418 56.82,-9.418 50.23,0 75.34,18.609 75.34,55.852 0,12.988 -3.58,24.675 -10.72,35.066 -7.14,10.391 -19.81,20.563 -37.98,30.527 l -60.4,33.77 c -34.65,19.477 -59.21,40.152 -73.72,62.016 -14.51,21.859 -21.75,46.648 -21.75,74.358 0,41.99 14.06,75.11 42.21,99.36 28.14,24.25 65.8,36.37 113,36.37 42.85,0 82.69,-10.62 119.49,-31.82 l -12.99,-80.53 h -3.24 c -13.86,9.52 -30.09,16.77 -48.71,21.75 -18.62,4.98 -36.15,7.48 -52.59,7.48 -43.75,0 -65.6,-16.68 -65.6,-50.01 0,-12.122 3.78,-23.169 11.36,-33.119 7.57,-9.964 22.41,-21.007 44.48,-33.121 l 53.27,-29.226 c 33.32,-18.184 57.57,-38.215 72.73,-60.071 15.14,-21.871 22.73,-47.957 22.73,-78.257 0,-45.032 -15.17,-80.203 -45.46,-105.532 -30.32,-25.328 -70.79,-37.988 -121.45,-37.988" /><path
         id="path24"
         style="fill:#202022;fill-opacity:1;fill-rule:nonzero;stroke:none"
         d="m 1696.13,637.938 c -15.58,21.644 -27.38,46.433 -35.39,74.355 -8.02,27.93 -12.01,59.637 -12.01,95.141 v 81.179 h -57.16 v 75.985 h 57.16 v 96.762 h 89.61 v -96.762 h 76.64 l -12.99,-75.985 h -63.65 v -74.035 c 0,-36.805 5.09,-68.84 15.27,-96.113 10.17,-27.277 24.35,-52.606 42.53,-75.985 v -4.542 h -100.01" /><path
         id="path26"
         style="fill:#202022;fill-opacity:1;fill-rule:nonzero;stroke:none"
         d="m 1937.07,735.348 c 0,-9.528 3.13,-17.535 9.41,-24.028 6.27,-6.496 16.57,-9.742 30.85,-9.742 22.51,0 41.24,6.598 56.18,19.805 14.94,13.203 22.41,30.625 22.41,52.281 v 7.793 l -68.84,-7.793 c -17.32,-1.734 -29.99,-5.519 -38,-11.367 -8.01,-5.84 -12.01,-14.828 -12.01,-26.949 z m 11.04,-102.606 c -31.61,0 -56.72,8.442 -75.33,25.324 -18.62,16.887 -27.93,40.481 -27.93,70.789 0,30.735 10.82,54.973 32.47,72.735 21.64,17.746 50.87,28.351 87.68,31.82 l 90.92,9.094 v 0.648 c 0,17.746 -4.88,31.172 -14.61,40.262 -9.75,9.094 -27.6,13.645 -53.59,13.645 -19.48,0 -39.28,-2.278 -59.42,-6.825 -20.13,-4.543 -36.26,-9.851 -48.38,-15.91 h -3.89 l 12.98,77.285 c 13.85,5.618 30.95,10.489 51.31,14.61 20.34,4.109 41.77,6.172 64.29,6.172 48.92,0 84.85,-11.481 107.81,-34.422 22.94,-22.953 34.42,-56.289 34.42,-100.008 v -103.91 c 0,-16.887 1.19,-33.555 3.57,-50.008 2.37,-16.457 6.38,-30.305 12.01,-41.563 v -4.542 h -85.07 c -2.6,6.492 -4.99,14.613 -7.15,24.347 -2.17,9.742 -3.47,18.723 -3.89,26.953 h -3.9 c -8.23,-16.023 -22.52,-29.445 -42.86,-40.261 -20.36,-10.832 -44.17,-16.235 -71.44,-16.235" /><path
         id="path28"
         style="fill:#202022;fill-opacity:1;fill-rule:nonzero;stroke:none"
         d="m 2385.82,708.723 c 24.68,0 44.48,8.543 59.41,25.656 14.95,17.094 22.42,39.5 22.42,67.211 0,28.137 -7.47,50.539 -22.42,67.215 -14.93,16.664 -34.73,25.004 -59.41,25.004 -25.12,0 -44.92,-8.231 -59.42,-24.68 -14.52,-16.457 -21.76,-39.188 -21.76,-68.191 0,-28.145 7.24,-50.551 21.76,-67.211 14.5,-16.676 34.3,-25.004 59.42,-25.004 z m 81.83,-70.785 v 49.355 h -3.9 c -9.53,-17.762 -23.7,-31.727 -42.54,-41.891 -18.83,-10.168 -40.16,-15.257 -63.96,-15.257 -29.02,0 -54.34,7.14 -75.99,21.429 -21.65,14.285 -38.54,34.305 -50.65,60.067 -12.13,25.757 -18.18,55.742 -18.18,89.949 0,34.199 5.94,64.07 17.85,89.617 11.91,25.543 28.79,45.465 50.66,59.754 21.85,14.281 47.29,21.43 76.31,21.43 22.08,0 42.2,-4.446 60.39,-13.313 18.18,-8.883 32.04,-20.898 41.57,-36.043 h 4.54 V 1125 h 90.92 V 637.938 h -87.02" /><path
         id="path30"
         style="fill:#202022;fill-opacity:1;fill-rule:nonzero;stroke:none"
         d="m 2707.28,637.938 c -15.58,21.644 -27.39,46.433 -35.4,74.355 -8,27.93 -12.01,59.637 -12.01,95.141 v 81.179 h -57.15 v 75.985 h 57.15 v 96.762 h 89.62 v -96.762 h 76.63 l -12.99,-75.985 h -63.64 v -74.035 c 0,-36.805 5.09,-68.84 15.27,-96.113 10.17,-27.277 24.35,-52.606 42.53,-75.985 v -4.542 h -100.01" /><path
         id="path32"
         style="fill:#202022;fill-opacity:1;fill-rule:nonzero;stroke:none"
         d="m 1474.69,17.2891 h -110.4 c -10.83,24.2422 -22.52,54.2304 -35.07,89.9489 -12.56,35.711 -24.68,75.43 -36.36,119.168 -11.7,43.723 -21.87,89.297 -30.53,136.699 -8.67,47.415 -14.72,94.493 -18.18,141.25 h 98.71 c 3.46,-43.3 9.19,-88.32 17.21,-135.078 8.01,-46.757 17.42,-92.332 28.25,-136.699 10.82,-44.394 22.08,-85.183 33.77,-122.418 h 4.55 l 98.71,329.899 h 72.73 l 98.71,-329.899 h 4.56 c 11.68,37.235 22.72,78.024 33.1,122.418 10.4,44.367 19.5,89.942 27.29,136.699 7.78,46.758 13.41,91.778 16.88,135.078 h 97.41 c -3.47,-46.757 -9.53,-93.835 -18.18,-141.25 -8.67,-47.402 -18.84,-92.976 -30.52,-136.699 -11.7,-43.738 -23.81,-83.457 -36.36,-119.168 -12.57,-35.7185 -24.27,-65.7067 -35.08,-89.9489 h -110.4 l -82.47,274.0589 h -4.56 L 1474.69,17.2891" /><path
         id="path34"
         style="fill:#202022;fill-opacity:1;fill-rule:nonzero;stroke:none"
         d="M 1943.57,17.2891 V 343.945 h 90.92 V 17.2891 Z m 45.46,378.6089 c -17.31,0 -31.38,5.411 -42.2,16.243 -10.83,10.82 -16.24,24.238 -16.24,40.261 0,16.446 5.41,29.875 16.24,40.266 10.82,10.391 24.89,15.586 42.2,15.586 17.32,0 31.39,-5.195 42.22,-15.586 10.82,-10.391 16.23,-23.82 16.23,-40.266 0,-16.023 -5.41,-29.441 -16.23,-40.261 -10.83,-10.832 -24.9,-16.243 -42.22,-16.243" /><path
         id="path36"
         style="fill:#202022;fill-opacity:1;fill-rule:nonzero;stroke:none"
         d="m 2266.98,279.004 c -20.35,0 -37.13,-6.172 -50.33,-18.504 -13.21,-12.336 -21.33,-30.852 -24.36,-55.52 l 138.99,15.586 c -3.04,20.332 -10.18,35.157 -21.44,44.485 -11.26,9.297 -25.54,13.953 -42.86,13.953 z M 2272.18,9.5 c -35.51,0 -66.14,6.9297 -91.9,20.7813 -25.76,13.8476 -45.57,33.5468 -59.42,59.0976 -13.86,25.5431 -20.78,55.4061 -20.78,89.6171 0,35.938 7.24,66.777 21.76,92.539 14.5,25.762 34.52,45.567 60.06,59.422 25.55,13.859 54.56,20.793 87.04,20.793 48.05,0 85.49,-14.738 112.34,-44.172 26.83,-29.441 40.26,-70.125 40.26,-122.09 v -20.125 l -224.69,-25.332 c 6.05,-19.922 16.88,-33.98 32.47,-42.2107 15.58,-8.2305 34.63,-12.3398 57.14,-12.3398 21.21,0 42.43,2.8086 63.65,8.4492 21.21,5.6094 37.23,11.8903 48.05,18.8323 h 4.55 l -12.99,-77.9339 c -12.12,-6.5 -29.01,-12.3476 -50.66,-17.539 C 2317.41,12.1016 2295.12,9.5 2272.18,9.5" /><path
         id="path38"
         style="fill:#202022;fill-opacity:1;fill-rule:nonzero;stroke:none"
         d="M 2484.54,17.2891 V 343.945 h 82.47 V 288.75 h 3.9 c 8.22,19.043 21.76,34.309 40.58,45.781 18.84,11.465 40.81,17.219 65.92,17.219 38.1,0 68.08,-12.676 89.95,-38 21.86,-25.332 32.8,-60.508 32.8,-105.527 V 17.2891 h -90.93 V 196.535 c 0,51.074 -21,76.629 -62.99,76.629 -21.22,0 -38.32,-7.578 -51.31,-22.734 -12.98,-15.157 -19.48,-35.293 -19.48,-60.391 V 17.2891 h -90.91" /></g></g></svg>