<?xml version="1.0" encoding="UTF-8"?>
<svg xmlns="http://www.w3.org/2000/svg" version="1.1" viewBox="0 0 256 256">
  <defs>
    <style>
      .cls-1 {
        fill: #fff;
      }

      .cls-2 {
        fill: #a67481;
      }
    </style>
  </defs>
  <!-- Generator: Adobe Illustrator 28.6.0, SVG Export Plug-In . SVG Version: 1.2.0 Build 709)  -->
  <g>
    <g id="Layer_1">
      <rect class="cls-2" x="131.1" y="22.4" width="12" height="208"/>
      <path class="cls-1" d="M152.3,182.6l14.5-2.2h2.9l15.8,2.2v5.9h-33.1v-5.9ZM195.2,91.2h9l33.2,97.3h-14.1l-28.8-86,3.4-.4-29.4,86.4h-6.9l33.5-97.3ZM178.4,150.4h39l2.4,6.7h-43.7l2.3-6.7ZM206.6,182.6l18.1-2.2h3.3l17.9,2.2v5.9h-39.3v-5.9Z"/>
      <path class="cls-1" d="M13.9,85.4h14l1.3,9.7h.4c6.1-6.2,12.9-11.4,21.8-11.4s16.3,4.8,19.6,12.7c6.8-7.2,13.7-12.7,22.8-12.7,15,0,22,10.4,22,28.3v44.5h-17.2v-42.3c0-11.6-3.3-15.7-10.7-15.7s-9.2,2.7-14.6,8.7v49.4h-17v-42.3c0-11.6-3.5-15.7-10.7-15.7s-9.2,2.7-14.6,8.7v49.4H13.9v-71.1Z"/>
    </g>
  </g>
</svg>