<?xml version="1.0" encoding="UTF-8"?>
<svg xmlns="http://www.w3.org/2000/svg" version="1.1" viewBox="0 0 212 34">
  <defs>
    <style>
      .cls-1 {
        fill: #fff;
      }

      .cls-2 {
        fill: #a67481;
      }
    </style>
  </defs>
  <!-- Generator: Adobe Illustrator 28.6.0, SVG Export Plug-In . SVG Version: 1.2.0 Build 709)  -->
  <g>
    <g id="Ebene_1">
      <g>
        <g>
          <g>
            <path class="cls-1" d="M86.2,23.6l1.8-.3h.4l2,.3v.7h-4.1v-.7ZM91.6,12.2h1.1l4.1,12.1h-1.8l-3.6-10.7h.4c0,0-3.7,10.7-3.7,10.7h-.9l4.2-12.1ZM89.5,19.6h4.9l.3.8h-5.4l.3-.8ZM93,23.6l2.3-.3h.4l2.2.3v.7h-4.9v-.7Z"/>
            <path class="cls-1" d="M101.4,21.1c0,1.6.5,2.1,1.4,2.1s1.8-.5,2.7-1.4h.4v.9h-.9l.6-.3c-1,1.4-2.2,2-3.4,2s-2.4-.9-2.3-3.2v-4.8c0,0,.4.4.4.4l-1.7-.4v-.6l2.7-.2.2.2v2.5c0,0,0,2.8,0,2.8ZM105.6,24.5l-.2-2.1v-5.8c0,0,.4.4.4.4l-1.7-.4v-.6l2.6-.3.2.2v2.5c0,0,0,5.4,0,5.4l-.5-.5,1.7.4v.6h-2.5Z"/>
            <path class="cls-1" d="M110,23.9v-2c0,0,.9,0,.9,0l.5,2.1-.9-.4v-.6c.6.5,1.3.7,2.2.7,1.4,0,2-.5,2-1.4s-.5-1.2-1.7-1.6l-.8-.3c-1.3-.5-2.2-1.2-2.2-2.4s1.1-2.5,3.1-2.5,1.7.3,2.5.7v1.8h-1l-.4-1.8.7.3v.5c-.6-.4-1.2-.7-1.8-.7-1.1,0-1.7.5-1.7,1.2s.4,1.1,1.7,1.5l.6.2c1.8.7,2.5,1.5,2.5,2.6s-1.2,2.6-3.5,2.6-1.8-.2-2.7-.7Z"/>
            <path class="cls-1" d="M121.6,23.6c.4,0,.7-.2,1.2-.5l.4.5c-.5.6-1.2.9-2.1.9s-2-.7-2-2.1,0-.8,0-1.5v-4.2h-1.5v-.8l2.2-.3-.7.6.6-2.9h1.1v3.2c-.1,0-.1,5.8-.1,5.8,0,.9.4,1.3,1,1.3ZM123,15.8v1h-3.2v-1h3.2Z"/>
            <path class="cls-1" d="M125.8,20.5v-.9c0-1,0-1.5,0-2.3l-1.4-.2v-.6l2.5-1.1.3.2.2,2.2v2.6c0,1.1,0,3,0,3.8h-1.6c0-.8,0-2.7,0-3.8ZM124.4,23.7l2-.4h.4l2,.4v.6h-4.4v-.6ZM126.5,18.1h1-.4c.6-1.6,1.7-2.6,2.7-2.6s1.1.3,1.3.7c0,.9-.3,1.3-1.1,1.3s-.8-.2-1.1-.5l-.5-.4.9-.2c-1.1.6-1.7,1.5-2.1,2.8h-.7v-1.2Z"/>
            <path class="cls-1" d="M132.4,20.1c0-3,2-4.5,4.1-4.5s4.1,1.6,4.1,4.5-2.1,4.5-4.1,4.5-4.1-1.5-4.1-4.5ZM138.9,20.1c0-2.4-.9-3.7-2.4-3.7s-2.4,1.3-2.4,3.7.9,3.7,2.4,3.7,2.4-1.2,2.4-3.7Z"/>
            <path class="cls-1" d="M144,16.7h-1.5v-.8l2-.3-.5.3c.2-2.1.5-3.2,1.3-4,.8-.8,1.7-1.1,2.5-1.1s1.6.3,1.7,1c0,.5-.4.8-1.1.8s-.9-.2-1.3-.5l-.9-.7,1.5-.4.4.5c-.2-.1-.5-.2-.7-.2-.5,0-1.2.4-1.5,1-.4.7-.7,1.9-.5,4.1v4c0,1.3,0,2.5,0,3.8h-1.6c0-1.3,0-2.5,0-3.8v-3.8ZM147.2,23.7v.6h-4.6v-.6l2-.4h.4l2.2.4ZM148,15.8v1h-3.2v-1h3.2Z"/>
            <path class="cls-1" d="M152.5,19.6c.8-.3,1.9-.6,2.8-.8v.7c-.8.2-1.9.5-2.4.7-1.6.6-1.8,1.3-1.8,1.8,0,1,.6,1.3,1.4,1.3s1-.2,2.1-1l.4-.3.2.4-.5.5c-1.1,1.1-1.7,1.6-2.8,1.6s-2.4-.8-2.4-2.3.5-1.8,3-2.7ZM154.5,22.7v-4.1c0-1.8-.5-2.2-1.7-2.2s-1,0-1.6.3l.8-.6-.4,1.5c-.2.6-.4.9-.9.9s-.8-.3-.8-.7c.3-1.4,1.7-2.2,3.5-2.2s2.8.9,2.8,3.1v3.8c0,.8.2,1.1.7,1.1s.5-.2.7-.4l.4.4c-.4.7-.9.9-1.6.9-1,0-1.7-.7-1.7-1.8Z"/>
            <path class="cls-1" d="M159.2,23.9v-2c0,0,.9,0,.9,0l.5,2.1-.9-.4v-.6c.6.5,1.3.7,2.2.7,1.4,0,2-.5,2-1.4s-.5-1.2-1.7-1.6l-.8-.3c-1.3-.5-2.2-1.2-2.2-2.4s1.1-2.5,3.1-2.5,1.7.3,2.5.7v1.8h-1l-.4-1.8.7.3v.5c-.6-.4-1.2-.7-1.8-.7-1.1,0-1.7.5-1.7,1.2s.4,1.1,1.7,1.5l.6.2c1.8.7,2.5,1.5,2.5,2.6s-1.2,2.6-3.5,2.6-1.8-.2-2.7-.7Z"/>
            <path class="cls-1" d="M168.9,19.9c0,2.3,1.2,3.5,2.9,3.5s1.9-.5,2.5-1.4l.4.2c-.5,1.5-1.7,2.3-3.4,2.3-2.5,0-4-1.7-4-4.5s2-4.5,4.2-4.5,3,1,3.2,2.3c0,.5-.4.7-.8.7s-.9-.4-1-.9l-.4-1.6.9.7c-.6-.3-1.2-.4-1.7-.4-1.5,0-2.7,1.2-2.7,3.5Z"/>
            <path class="cls-1" d="M177.8,24.3c0-.8,0-2.7,0-3.8v-.8c0-1,0-1.5,0-2.3l-1.5-.2v-.6l2.8-1.1.3.2v2.4c0,0,0,2.4,0,2.4,0,1.1,0,3,0,3.8h-1.6ZM180.6,23.7v.6h-4.2v-.6l2-.4h.4l1.8.4ZM177.4,12.4c0-.7.5-1.2,1.2-1.2s1.2.5,1.2,1.2-.5,1.2-1.2,1.2-1.2-.5-1.2-1.2Z"/>
            <path class="cls-1" d="M182.6,23.9v-2c0,0,.9,0,.9,0l.5,2.1-.9-.4v-.6c.6.5,1.3.7,2.2.7,1.4,0,2-.5,2-1.4s-.5-1.2-1.7-1.6l-.8-.3c-1.3-.5-2.2-1.2-2.2-2.4s1.1-2.5,3.1-2.5,1.7.3,2.5.7v1.8h-1l-.4-1.8.7.3v.5c-.6-.4-1.2-.7-1.8-.7-1.1,0-1.7.5-1.7,1.2s.4,1.1,1.7,1.5l.6.2c1.8.7,2.5,1.5,2.5,2.6s-1.2,2.6-3.5,2.6-1.8-.2-2.7-.7Z"/>
            <path class="cls-1" d="M191.9,24.3c0-.8,0-2.7,0-3.8v-.9c0-1,0-1.5,0-2.3l-1.4-.2v-.6l2.5-1.1.3.2.2,2.1v2.7c0,1.1,0,3,0,3.8h-1.6ZM194.8,23.7v.6h-4.2v-.6l2-.4h.4l1.8.4ZM198.9,18.9v1.7c0,1.2,0,3,0,3.8h-1.6c0-.8,0-2.6,0-3.8v-1.5c0-1.7-.4-2.2-1.5-2.2s-1.6.4-2.6,1.2h-.4v-.8h.9l-.8.3c.9-1.2,2.2-2,3.5-2s2.3,1,2.3,3.3ZM198.4,23.3l1.8.4v.6h-4.2v-.6l2-.4h.4ZM204.3,18.7v1.9c0,1.2,0,3,0,3.8h-1.6c0-.8,0-2.6,0-3.8v-1.6c0-1.7-.5-2.2-1.5-2.2s-1.6.3-2.6,1.2h-.4v-.7h1l-.8.2c1-1.4,2.3-2,3.5-2s2.3.9,2.3,3.1ZM203.8,23.3l1.8.4v.6h-4.2v-.6l2-.4h.4Z"/>
          </g>
          <g>
            <path class="cls-1" d="M6.4,10.5h1.7l.2,1.2h0c.8-.8,1.6-1.4,2.7-1.4s2,.6,2.4,1.6c.8-.9,1.7-1.6,2.8-1.6,1.9,0,2.7,1.3,2.7,3.5v5.5h-2.1v-5.3c0-1.4-.4-2-1.3-2s-1.2.3-1.8,1.1v6.2h-2.1v-5.3c0-1.4-.4-2-1.3-2s-1.2.3-1.8,1.1v6.2h-2.1v-8.9Z"/>
            <path class="cls-1" d="M21.1,16.9c0-1.9,1.5-2.9,5.2-3.3,0-.9-.4-1.7-1.6-1.7s-1.7.4-2.5.8l-.8-1.4c1-.6,2.2-1.2,3.6-1.2,2.2,0,3.3,1.4,3.3,3.8v5.2h-1.7l-.2-1h0c-.8.7-1.7,1.2-2.7,1.2-1.5,0-2.6-1-2.6-2.6ZM26.3,16.9v-1.9c-2.4.3-3.1.8-3.1,1.7s.5,1,1.2,1,1.3-.3,1.9-.9Z"/>
            <path class="cls-1" d="M30.9,10.5h1.7l.2.9h0c.8-.6,1.7-1.2,2.7-1.2,2.2,0,3.5,1.8,3.5,4.5s-1.8,4.8-3.8,4.8-1.6-.4-2.3-1v1.5c0,0,0,2.8,0,2.8h-2.1v-12.3ZM36.8,14.8c0-1.7-.6-2.8-1.9-2.8s-1.2.3-1.9,1v4.1c.6.5,1.2.7,1.7.7,1.2,0,2.1-1,2.1-3Z"/>
            <path class="cls-1" d="M41.1,10.5h1.7l.2.9h0c.8-.6,1.7-1.2,2.7-1.2,2.2,0,3.5,1.8,3.5,4.5s-1.8,4.8-3.8,4.8-1.6-.4-2.3-1v1.5c0,0,0,2.8,0,2.8h-2.1v-12.3ZM47,14.8c0-1.7-.6-2.8-1.9-2.8s-1.2.3-1.9,1v4.1c.6.5,1.2.7,1.7.7,1.2,0,2.1-1,2.1-3Z"/>
            <path class="cls-1" d="M51,7.7c0-.7.5-1.2,1.3-1.2s1.3.5,1.3,1.2-.5,1.2-1.3,1.2-1.3-.5-1.3-1.2ZM51.2,10.5h2.1v8.9h-2.1v-8.9Z"/>
            <path class="cls-1" d="M56,10.5h1.7l.2,1.2h0c.8-.8,1.7-1.4,2.9-1.4,1.9,0,2.7,1.3,2.7,3.5v5.5h-2.1v-5.3c0-1.4-.4-2-1.4-2s-1.3.4-2,1.1v6.2h-2.1v-8.9Z"/>
            <path class="cls-1" d="M65.5,20.9c0-.8.5-1.4,1.3-1.9h0c-.5-.4-.8-.8-.8-1.5s.5-1.3,1-1.6h0c-.6-.5-1.2-1.4-1.2-2.4,0-2,1.7-3.2,3.5-3.2s1,0,1.3.2h3.2v1.6h-1.6c.3.3.5.9.5,1.5,0,2-1.5,3-3.4,3s-.8,0-1.2-.2c-.3.2-.4.4-.4.8s.4.8,1.4.8h1.6c2.1,0,3.2.7,3.2,2.2s-1.8,3.1-4.7,3.1-3.7-.8-3.7-2.3ZM71.8,20.4c0-.7-.5-.9-1.5-.9h-1.2c-.5,0-.9,0-1.2-.1-.5.4-.7.7-.7,1.2,0,.8.9,1.2,2.2,1.2s2.4-.6,2.4-1.4ZM70.8,13.4c0-1.1-.6-1.7-1.5-1.7s-1.5.6-1.5,1.7.7,1.7,1.5,1.7,1.5-.6,1.5-1.7Z"/>
          </g>
        </g>
        <rect class="cls-2" x="80" y="4.9" width="2" height="24.2"/>
      </g>
    </g>
  </g>
</svg>