<?xml version="1.0" encoding="utf-8"?>
<!-- Generator: Adobe Illustrator 19.0.0, SVG Export Plug-In . SVG Version: 6.00 Build 0)  -->
<svg version="1.1" id="Layer_1" xmlns="http://www.w3.org/2000/svg" xmlns:xlink="http://www.w3.org/1999/xlink" x="0px" y="0px"
	 viewBox="0 0 142.1 32.6" style="enable-background:new 0 0 142.1 32.6;" xml:space="preserve">
<style type="text/css">
	.st0{fill:#FFFFFF;}
</style>
<g id="XMLID_340_">
	<g id="XMLID_1_">
		<g id="XMLID_345_">
			<path id="XMLID_17_" class="st0" d="M10.3,10c1.1,0,2,0.4,2.6,1l-1,1.3c-0.5-0.4-0.9-0.6-1.5-0.6C9,11.7,8,12.8,8,14.6
				c0,1.7,1,2.9,2.3,2.9c0.7,0,1.3-0.4,1.8-0.7l0.9,1.3c-0.8,0.7-1.9,1.1-2.9,1.1c-2.4,0-4.2-1.7-4.2-4.6C5.9,11.7,8,10,10.3,10z"/>
			<path id="XMLID_304_" class="st0" d="M19.3,13.4c0-0.9-0.4-1.7-1.6-1.7c-0.9,0-1.7,0.4-2.5,0.9l-0.7-1.4c1-0.6,2.2-1.1,3.6-1.1
				c2.2,0,3.3,1.3,3.3,3.8V19h-1.7l-0.2-1h-0.1c-0.8,0.7-1.7,1.2-2.7,1.2c-1.5,0-2.6-1-2.6-2.6C14.2,14.8,15.8,13.8,19.3,13.4z
				 M17.4,17.6c0.7,0,1.3-0.4,1.9-1v-2c-2.4,0.3-3.1,0.9-3.1,1.8C16.2,17.2,16.7,17.6,17.4,17.6z"/>
			<path id="XMLID_307_" class="st0" d="M23.9,10.2h1.7l0.1,1.2h0.1c0.7-0.8,1.6-1.4,2.7-1.4c1.3,0,2,0.6,2.4,1.6
				c0.8-0.9,1.7-1.6,2.8-1.6c1.9,0,2.7,1.3,2.7,3.5V19h-2.1v-5.2c0-1.4-0.4-2-1.3-2c-0.6,0-1.2,0.4-1.8,1.1V19h-2v-5.2
				c0-1.4-0.4-2-1.4-2c-0.5,0-1.2,0.4-1.8,1.1V19h-2V10.2z"/>
			<path id="XMLID_309_" class="st0" d="M40.9,19.7v2.7h-2V10.2h1.7l0.1,0.9h0.1c0.7-0.6,1.7-1.1,2.6-1.1c2.2,0,3.4,1.7,3.4,4.4
				c0,3-1.8,4.7-3.7,4.7c-0.8,0-1.5-0.4-2.2-1L40.9,19.7z M42.7,17.5c1.2,0,2-1,2-3c0-1.7-0.6-2.8-1.9-2.8c-0.6,0-1.2,0.3-1.9,1v4.1
				C41.5,17.3,42.2,17.5,42.7,17.5z"/>
			<path id="XMLID_312_" class="st0" d="M48.8,10.2h2v5.2c0,1.4,0.4,2,1.4,2c0.8,0,1.3-0.4,1.9-1.2v-6h2V19h-1.7l-0.2-1.3h-0.1
				c-0.8,0.9-1.6,1.5-2.8,1.5c-1.9,0-2.7-1.3-2.7-3.5V10.2z"/>
			<path id="XMLID_314_" class="st0" d="M58.9,16.7c0.8,0.6,1.5,1,2.4,1c0.9,0,1.4-0.4,1.4-1c0-0.7-0.9-1-1.9-1.4
				c-1.2-0.4-2.5-1.1-2.5-2.5c0-1.5,1.2-2.6,3.2-2.6c1.2,0,2.2,0.5,2.9,1l-0.9,1.2c-0.6-0.4-1.2-0.7-1.9-0.7c-0.9,0-1.3,0.4-1.3,1
				c0,0.7,0.9,1,1.8,1.3c1.2,0.4,2.5,1,2.5,2.7c0,1.5-1.2,2.7-3.4,2.7c-1.2,0-2.5-0.5-3.3-1.2L58.9,16.7z"/>
		</g>
		<g id="XMLID_342_">
			<path id="XMLID_4_" class="st0" d="M91.5,22.8v0.6h-4.1v-0.6l1.3-0.2c0-0.9,0-2,0-2.8v-1.6c0-1.7-0.5-2.1-1.5-2.1
				c-0.7,0-1.5,0.3-2.4,1.1c0,0.3,0,0.6,0,0.9v1.7c0,0.8,0,2,0,2.8l1.2,0.2v0.6h-4.1v-0.6l1.3-0.2c0-0.9,0-2,0-2.8v-1.6
				c0-1.6-0.4-2.2-1.5-2.2c-0.8,0-1.5,0.3-2.4,1.1v2.7c0,0.8,0,2,0,2.8l1.2,0.2v0.6h-4.1v-0.6l1.3-0.2c0-0.9,0-2,0-2.8v-0.9
				c0-1,0-1.5-0.1-2.2l-1.4-0.2v-0.6l2.5-1.1l0.3,0.2l0.1,1.4c0.9-0.9,2-1.6,3.1-1.6c1.1,0,1.8,0.5,2.1,1.7c0.9-1.1,2.1-1.7,3.2-1.7
				c1.4,0,2.3,0.9,2.3,3.1v1.9c0,0.8,0,2,0,2.8L91.5,22.8z"/>
			<path id="XMLID_6_" class="st0" d="M94.9,19.1c0,2.2,1.2,3.4,2.9,3.4c1.1,0,1.8-0.5,2.5-1.2l0.4,0.3c-0.7,1.3-1.8,2.1-3.4,2.1
				c-2.4,0-4-1.7-4-4.4c0-2.7,1.9-4.6,4.1-4.6c1.9,0,3.3,1.3,3.3,3.4c0,0.4-0.1,0.7-0.1,1H94.9z M98.2,18.4c0.9,0,1-0.4,1-0.9
				c0-1-0.8-1.9-1.9-1.9c-1,0-2.2,0.8-2.3,2.8H98.2z"/>
			<path id="XMLID_9_" class="st0" d="M111.8,22.8v0.6l-2.8,0.2l-0.1-1.2c-0.6,0.8-1.4,1.3-2.5,1.3c-2.2,0-3.6-1.8-3.6-4.4
				c0-2.7,1.6-4.6,3.8-4.6c0.9,0,1.6,0.3,2.3,1.2v-3.8l-1.5-0.2v-0.6l2.8-0.8l0.2,0.1l-0.1,2.5v9.4L111.8,22.8z M108.9,16.6
				c-0.8-0.7-1.4-0.9-2-0.9c-1.3,0-2.5,1.1-2.5,3.5c0,2.3,1,3.4,2.5,3.4c0.8,0,1.3-0.3,2-1V16.6z"/>
			<path id="XMLID_296_" class="st0" d="M117.3,22.8v0.6h-4.1v-0.6l1.3-0.2c0-0.9,0-2,0-2.8v-0.9c0-1,0-1.5-0.1-2.2l-1.4-0.2v-0.6
				l2.8-1.1l0.3,0.2l-0.1,2.4v2.4c0,0.8,0,2,0,2.8L117.3,22.8z M114.1,11.6c0-0.7,0.5-1.1,1.2-1.1c0.7,0,1.2,0.4,1.2,1.1
				c0,0.7-0.5,1.1-1.2,1.1C114.6,12.8,114.1,12.3,114.1,11.6z"/>
			<path id="XMLID_299_" class="st0" d="M128,22.8v0.6l-2.5,0.2l-0.2-1.6c-1,1.2-2.1,1.7-3.1,1.7c-1.4,0-2.3-0.9-2.3-3.2L120,16
				l-1.3-0.3v-0.6l2.6-0.2l0.2,0.2l-0.1,2.5v2.8c0,1.5,0.5,2.1,1.4,2.1c0.8,0,1.7-0.4,2.5-1.1l0.1-5.2l-1.3-0.3v-0.6l2.6-0.2
				l0.2,0.2l-0.1,2.5v5L128,22.8z"/>
			<path id="XMLID_301_" class="st0" d="M133.7,18.5c1.8,0.7,2.4,1.5,2.4,2.6c0,1.3-1.2,2.6-3.5,2.6c-1,0-1.8-0.2-2.7-0.7l-0.1-2h1
				l0.3,1.5c0.4,0.2,0.9,0.3,1.4,0.3c1.4,0,2-0.6,2-1.4c0-0.7-0.6-1.2-1.7-1.6l-0.8-0.3c-1.3-0.5-2.2-1.2-2.2-2.4
				c0-1.4,1.2-2.6,3.1-2.6c1,0,1.7,0.3,2.5,0.7l-0.1,1.8h-0.9l-0.3-1.4c-0.4-0.2-0.8-0.3-1.2-0.3c-1.1,0-1.7,0.5-1.7,1.3
				c0,0.7,0.4,1,1.6,1.5L133.7,18.5z"/>
		</g>
	</g>
	<g id="XMLID_341_">
		<rect id="XMLID_3_" x="70.5" y="5.1" class="st0" width="1" height="24"/>
	</g>
</g>
</svg>
