<svg version="1.1" id="Layer_1" xmlns="http://www.w3.org/2000/svg" xmlns:xlink="http://www.w3.org/1999/xlink" x="0px" y="0px"
	 width="150px" height="150px" viewBox="0 0 150 150" style="enable-background:new 0 0 150 150;" xml:space="preserve">


<!-- SOVEREIGN SIGNS (Mediator 0-5)  -->

<symbol id="mediator-1" fill="currentColor"> <!-- leader -->
	 <circle id="XMLID_15_" cx="75" cy="75" r="75" fill="#ffffff" /> 
	<path d="M81.5,59.2c-1.7,1-3.6,1.6-5.9,1.6c-2.1,0-3.9-0.5-5.5-1.4l-0.5-0.3c-4.5-2.8-7.1-8.8-7.1-16
	c0-10.5,2.6-15.4,9.3-17.3c2.2-0.6,3.4,2.3,5,4.9c2.8,4.5-5.7,3.7-8.4,2.4c-1.6-0.8-2.8,1-2.8,1c-1.4,2.6-0.9,5.1-0.9,8.6
	c0,8.7,3,16,10.9,15.9c6.4-0.1,10.6-6.4,10.6-15.1c0-3.9,0-7.1-1.5-10c-0.4-0.7-1-2-3.3-0.7c-1.9,1.1-2.7-2.5-3.7-4.3
	c-1.1-1.9-2-2.4-2.2-2.7c-0.2-0.2,0.2-0.3,0.2-0.3c8.2,0,12.5,6.4,12.5,18.1c0,7.1-2.1,12.7-6.3,15.4L81.5,59.2z M100.6,101.6
	l-1.4-0.2c-0.2,1.4-2.4,5.9-3,10.8h-7.1l-7.8-12.6l-1.7,1.1l7.2,11.5h-7.9c-0.3-0.7-1-1.2-1.8-1.2h-3.1c-0.8,0-1.5,0.5-1.8,1.2H54.7
	c-0.2-5-1.7-9.5-1.9-10.9c-0.8,0.1-1.5,0.2-2.2,0.3c-10.9,1.4-14-5.7-10.1-18.9l4-14.9c1.8-7.7,7.2-8.6,9.3-8.7l14.6,23.6l1.7-1.1
	l-14-22.5h8.3v0.1c1.9,2.1,2.2,4.3,4.1,6.4c0.3,2.3,3,8.9,4.7,12.8l0.9-12.3c0,0-1.4-2.3-1.4-2.3c-0.4-0.7,0.2-1.1,0.2-1.1
	c0.1-0.2,0.9-1,0.9-1c0.1-0.2,0.3-0.2,0.6-0.2h0.3h2.7c0.2,0,0.4,0.1,0.6,0.2c0,0,0.7,0.8,0.9,1c0,0,0.6,0.5,0.2,1.1
	c0,0-1.4,2.2-1.4,2.2l0.8,12.5c1.6-3.2,4.6-10.6,5-12.9c1.9-2.1,2.2-4.3,4.1-6.4l9.8,0c0,0,7.2-1.2,8.9,8.6l3.5,14.9
	C112.8,95.5,111.5,103,100.6,101.6z M61.6,84.3c-1.4-1.9-5.1-1.5-6.7,0c-0.3,0.3-0.7,0.8-0.9,1c0.2-0.2,1,0.9,2.7,1
	C58.1,86.4,61.8,85.1,61.6,84.3z M99.2,85.2c-1.9-4.2-7.9-5.3-11.7-3.1l2.4,3.6C92.4,86.4,99.2,86.8,99.2,85.2z M96.2,116.4
	c0-0.3,0-0.5,0-0.8H78.8c-0.3,0.7-1,1.2-1.8,1.2h-3.1c-0.8,0-1.5-0.5-1.8-1.2H54.6c0,0.3,0,0.5-0.1,0.8c-1.8,10.3-3.7,18.4-5.1,23.3
	l3.5,0c-0.2,2.1-0.4,4.5-0.6,6.8c0.8,0.3,1.7,0.5,2.5,0.7c0.2-2.5,0.5-5.2,0.7-7.5l0.4,0c6-0.2,12.2-0.3,18.4-0.4
	c-0.4,2.7-0.6,4.4-0.9,10.6c0.6,0,1.1,0,1.7,0c0.2,0,0.3,0,0.5,0c0.1-1.5,0.3-2.5,0.6-5.8c0.1,3.2,0.2,4.4,0.3,5.8
	c0.7,0,1.4,0,2.1-0.1c0-6.2-0.1-8.1-0.4-10.6c6.3,0,12.5,0.1,17.9,0.4h0.3c0,0.7,0.3,3.4,0.7,7c0.8-0.2,1.6-0.5,2.4-0.8
	c-0.3-3.2-0.5-5.6-0.5-6.3h3C100.3,134.7,97.3,124.7,96.2,116.4z"/>
</symbol>

<symbol id="mediator-2" fill="currentColor"> <!-- editorial -->
	<circle id="XMLID_15_" cx="75" cy="75" r="75" fill="#ffffff" /> 
	<path d="M42,27.9v94.2H108V27.9H42z M105.4,119.5H44.6V30.5h60.8V119.5z"/>
	<rect id="XMLID_49_" x="54.7" y="37.2" width="38.8" height="7.1"/>
	<rect id="XMLID_48_" x="49.2" y="52.3" width="32.1" height="3.5"/>
	<rect id="XMLID_47_" x="84.5" y="52.3" width="16.6" height="3.5"/>
	<rect id="XMLID_46_" x="49.2" y="77.8" width="32.1" height="3.5"/>
	<rect id="XMLID_45_" x="49.2" y="58.7" width="32.1" height="1.3"/>
	<rect id="XMLID_44_" x="49.2" y="62.3" width="32.1" height="1.3"/>
	<rect id="XMLID_43_" x="49.2" y="65.8" width="32.1" height="1.3"/>
	<rect id="XMLID_42_" x="49.2" y="69.4" width="32.1" height="1.3"/>
	<rect id="XMLID_41_" x="49.2" y="73" width="32.1" height="1.3"/>
	<rect id="XMLID_40_" x="84.5" y="58.7" width="16.3" height="1.3"/>
	<rect id="XMLID_39_" x="84.5" y="62.3" width="16.3" height="1.3"/>
	<rect id="XMLID_38_" x="84.5" y="65.8" width="16.3" height="1.3"/>
	<rect id="XMLID_37_" x="84.5" y="69.4" width="16.3" height="1.3"/>
	<rect id="XMLID_36_" x="84.5" y="73" width="16.3" height="1.3"/>
	<rect id="XMLID_35_" x="84.5" y="76.6" width="16.3" height="1.3"/>
	<rect id="XMLID_34_" x="84.5" y="80.1" width="16.3" height="1.3"/>
	<rect id="XMLID_33_" x="84.5" y="83.7" width="16.3" height="1.3"/>
	<rect id="XMLID_32_" x="84.5" y="83.7" width="16.3" height="1.3"/>
	<rect id="XMLID_31_" x="84.5" y="87.3" width="16.3" height="1.3"/>
	<rect id="XMLID_30_" x="84.5" y="90.9" width="16.3" height="1.3"/>
	<rect id="XMLID_29_" x="84.5" y="94.5" width="16.3" height="1.3"/>
	<rect id="XMLID_28_" x="84.5" y="98" width="16.3" height="1.3"/>
	<rect id="XMLID_27_" x="84.5" y="101.6" width="16.3" height="1.3"/>
	<rect id="XMLID_26_" x="84.5" y="105.2" width="16.3" height="1.3"/>
	<rect id="XMLID_25_" x="84.5" y="108.8" width="16.3" height="1.3"/>
	<rect id="XMLID_24_" x="84.5" y="112.4" width="16.3" height="1.3"/>
	<rect id="XMLID_23_" x="49.2" y="83.7" width="32.1" height="1.3"/>
	<rect id="XMLID_22_" x="49.2" y="83.7" width="32.1" height="1.3"/>
	<rect id="XMLID_21_" x="49.2" y="87.3" width="32.1" height="1.3"/>
	<rect id="XMLID_20_" x="49.2" y="90.9" width="32.1" height="1.3"/>
	<rect id="XMLID_19_" x="49.2" y="94.5" width="32.1" height="1.3"/>
	<rect id="XMLID_18_" x="49.2" y="98" width="32.1" height="1.3"/>
	<rect id="XMLID_17_" x="49.2" y="101.6" width="32.1" height="1.3"/>
	<rect id="XMLID_16_" x="49.2" y="105.2" width="32.1" height="1.3"/>
	<rect id="XMLID_15_" x="49.2" y="108.8" width="32.1" height="1.3"/>
	<rect id="XMLID_14_" x="49.2" y="112.4" width="32.1" height="1.3"/>
</symbol>

<symbol id="mediator-3" fill="currentColor"> <!-- residence -->
	<circle id="XMLID_15_" cx="75" cy="75" r="75" fill="#ffffff" /> 
	<path d="M16.4,51.7l9.4-8.7h35.4l9.4-4.9h9.9l9.4,4.9h35.4l9.4,8.7H16.4z M61.1,54.2l28.6,0V94h-4.4v-7.7
	c0-1.5-1-2.1-2.1-2.1c-1.1,0-2.1,0.6-2.1,2.1V94h-3.7v-7.7c0-1.5-1-2.1-2.1-2.1s-2.1,0.6-2.1,2.1V94h-3.7v-7.8c0-1.5-1-2.1-2.1-2.1
	c-1.1,0-2.1,0.6-2.1,2.1V94h-4.4V54.2L61.1,54.2z M69.6,78.3l0-4.8c0-1.5-1-2.1-2.1-2.1s-2.1,0.6-2.1,2.1v4.8H69.6L69.6,78.3z
	 M69.6,66.6l0-4.8c0-1.5-1-2.1-2.1-2.1s-2.1,0.6-2.1,2.1v4.8H69.6L69.6,66.6z M77.5,78.3l0-4.8c0-1.5-1-2.1-2.1-2.1
	s-2.1,0.6-2.1,2.1v4.8H77.5L77.5,78.3z M77.5,66.6l0-4.8c0-1.5-1-2.1-2.1-2.1s-2.1,0.6-2.1,2.1v4.8H77.5L77.5,66.6z M85.4,78.3
	l0-4.8c0-1.5-1-2.1-2.1-2.1c-1.1,0-2.1,0.6-2.1,2.1v4.8H85.4L85.4,78.3z M85.4,66.6l0-4.8c0-1.5-1-2.1-2.1-2.1
	c-1.1,0-2.1,0.6-2.1,2.1v4.8H85.4L85.4,66.6z M16.4,54.2h39.8V94H16.4V54.2L16.4,54.2z M26.5,83.1h-4.2V90h4.2V83.1z M26.5,71.5
	h-4.2v6.9h4.2V71.5z M26.5,59.8h-4.2v6.9h4.2V59.8z M34.4,83.1h-4.2V90h4.2V83.1z M34.4,71.5h-4.2v6.9h4.2V71.5z M34.4,59.8h-4.2
	v6.9h4.2V59.8z M42.3,83.1h-4.2V90h4.2V83.1z M42.3,71.5h-4.2v6.9h4.2V71.5z M42.3,59.8h-4.2v6.9h4.2V59.8z M50.1,83.1H46V90h4.2
	V83.1z M50.1,71.5H46v6.9h4.2V71.5z M50.1,59.8H46v6.9h4.2V59.8z M94.7,54.2h39.8V94H94.7V54.2L94.7,54.2z M104.9,83.1h-4.2V90h4.2
	V83.1z M104.9,71.5h-4.2v6.9h4.2V71.5z M104.9,59.8h-4.2v6.9h4.2V59.8z M112.8,83.1h-4.2V90h4.2V83.1z M112.8,71.5h-4.2v6.9h4.2
	V71.5z M112.8,59.8h-4.2v6.9h4.2V59.8z M120.6,83.1h-4.2V90h4.2V83.1z M120.6,71.5h-4.2v6.9h4.2V71.5z M120.6,59.8h-4.2v6.9h4.2
	V59.8z M128.5,83.1h-4.2V90h4.2V83.1z M128.5,71.5h-4.2v6.9h4.2V71.5z M128.5,59.8h-4.2v6.9h4.2V59.8z M141.2,110.3l-6.7-10.4H94.7
	l25.6,34.9C128.9,128.3,136.1,119.9,141.2,110.3z M65.5,99.9l-28.7,39.6c1,0.6,2.1,1.2,3.1,1.7l27.4-37.8h16.3l27.3,37.4
	c1-0.6,2.1-1.2,3.1-1.8L85.4,99.9H65.5z M9.2,111.1c5.2,9.5,12.4,17.7,21.1,24.2l25.9-35.3H16.4L9.2,111.1z"/>
</symbol>

<symbol id="mediator-4" fill="currentColor"> <!-- theater -->
	<circle id="XMLID_15_" cx="75" cy="75" r="75" fill="#ffffff" /> 
	<path id="XMLID_14_" d="M81.4,72.7c-4.6,0-10.8-1-18.2-4.6c-16.8-8.5-19-20.2-19-20.2s-39.8,61-8.8,76.4l0,0l0,0
	c3.1,1.5,6.2,2.3,9.1,2.3c26.6,0,46.2-55.5,46.2-55.5S87.5,72.7,81.4,72.7z M47.8,64.9c2.8,1.4,5,12.3,5.2,15.2
	c0,0-3.7-10.9-6.7-12.3s-8.4,0-8.4,0C40.4,66.2,45,63.5,47.8,64.9z M36.4,72.9c0,0,7.7,1.5,11.1,11.9C32.3,83.9,36.4,72.9,36.4,72.9
	z M53.5,119.4c0,0-3.5-9.2-8.8-11.8l0,0c-5.3-2.6-15.4-0.7-15.4-0.7c1.6-3.2,8.4-11.9,19-6.7l0,0C54.8,103.3,55.1,116.1,53.5,119.4z
	 M58.7,91.4C69,87.9,74.9,93,74.9,93S68.7,103,58.7,91.4z M72.4,83.4c-3-1.5-13.9,2.2-13.9,2.2c2.4-1.6,12.5-6.5,15.2-5.1
	c2.8,1.4,3.5,6.7,3.7,9.6C77.4,90,75.3,84.8,72.4,83.4z M108,16.4c0,0-2.5,11.7-19.4,19.8C75,41,61.3,36.5,61.3,36.5
	s4.6,18.1,14.3,33.9c2,0.4,3.9,0.5,5.9,0.5c5.5,0,8.6-1.5,8.7-1.5l3.9-1.9l-1.5,4.1c0,0-0.5,1.5-1.5,3.8c4.6,1.1,13.2,3,17.1,1.2
	c9.2-3.4,10.7-11.5,10.7-11.5c1.5,4.1,1.7,15.7-5.5,19.1l0,0c-8.6,4.1-18.6-2.5-22.9-6.9c-0.9,2.1-2,4.7-3.3,7.6
	c7.6,7.1,17.1,11.1,28.3,8l0,0l0,0C143.9,73.7,108,16.4,108,16.4z M72.5,56.9c0.2-2.9,1.1-8.2,3.8-9.5c2.8-1.3,12.8,3.8,15.1,5.4
	c0,0-10.9-3.8-13.8-2.4C74.7,51.8,72.5,56.9,72.5,56.9z M77.4,60.4c0,0,6-5.1,16.2-1.3C83.4,70.5,77.4,60.4,77.4,60.4z M99.3,48.4
	c0.2-2.9,2.7-13.8,5.5-15.1c2.8-1.3,7.4,1.4,9.8,3.1c0,0-5.4-1.6-8.4-0.2C103.2,37.7,99.3,48.4,99.3,48.4z M104.4,54.9
	c3.6-10.3,11.3-11.7,11.3-11.7S119.7,54.4,104.4,54.9z"/>
</symbol>

<symbol id="mediator-5" fill="currentColor"> <!-- reframing -->
	<circle id="XMLID_15_" cx="75" cy="75" r="75" fill="#ffffff" /> 
	<path id="XMLID_14_" d="M125.8,39.2v25c0,0-7.3,4.9-22.5,0.7c-8.9-2.5-15.3-0.2-17.9,1l14.2,46.3c0,0.2-0.1,0.4-0.3,0.4
	l-1.7,0.4c0,0-0.1,0-0.1,0c-0.2,0-0.4-0.1-0.4-0.3L74.3,38.5c0-0.2,0.1-0.4,0.3-0.4l1.7-0.4c0,0,0.1,0,0.1,0c0.2,0,0.4,0.1,0.4,0.3
	l0.9,2.9c4.1-2.3,13-6.5,25.3-1.6C119.4,45.7,125.8,39.2,125.8,39.2z M91.2,103h-67v2.2h67V103z M88.4,95h-39v2.2h39V95z M37.1,87
	H24.2v2.2h12.9V87z M31.5,95h-7.3v2.2h7.3V95z M85.8,87H71.4v2.2h14.4V87z M42,79H24.2v2.2H42V79z M56.2,79h-4.9v2.2h4.9V79z
	 M83.4,79H71.5v2.2h11.8V79z M42,71H24.2v2.2H42V71z M63.3,71h-12v2.2h12V71z M80.4,71h-8.9v2.2h8.9V71z M44,60.6v1.2v25.9
	c-0.6,0.1-1.2,0.3-1.8,0.4c-0.9,0.2-1.9,0.5-2.9,0.9c-2.1,0.8-3.8,2-4.9,3.5c-1.2,1.7-1.7,3.6-1.1,5.3c1.1,3.3,5.9,4.9,10.3,2.9
	c0.2-0.1,0.4-0.2,0.5-0.3c3-1.8,3.5-6.5,3.6-9.8c0-0.1,0-0.1,0-0.2l0,0V64.3v-1.1l18.3-6.3V78c-0.6,0.1-1.2,0.3-1.8,0.4
	c-0.9,0.2-1.9,0.5-2.9,0.9c-2.1,0.8-3.8,2-4.9,3.5c-1.2,1.7-1.7,3.6-1.1,5.3c1.1,3.3,5.9,4.9,10.3,2.9c0.2-0.1,0.4-0.2,0.5-0.3
	c3-1.8,3.5-6.5,3.6-9.8c0-0.4,0-0.7,0-0.9l0,0V51.7L44,60.6z"/>
</symbol>



<!-- EXAMINING GAZES (Mediator 6-10)  -->

<symbol id="mediator-6" fill="currentColor"> <!-- parade -->
	<circle id="XMLID_15_" cx="75" cy="75" r="75" fill="#ffffff" /> 
	<path d="M35.9,124.2c-1.5-0.1-3-0.2-4.6-0.3c-0.8,0-1.7,0-2.6,0c-0.2-2.1,0.7-3.6,1.7-5.3c-1.1-1-0.8-2.2-0.6-3.4
	c0.5-2.4,0.9-4.8,1.3-7.2c0.1-0.5,0.2-1.1,0.4-1.7c3.3,0,6.6,0,9.9,0c-0.2,0.8-0.3,1.4-0.5,2c-0.9,2.4-1.7,4.9-2.7,7.2
	c-0.5,1.2-1.1,2.3-1.9,3.8c0,0.4,0.6,0.8,1.3,1.1c0.7,0.3,1.4,0.4,2.2,0.7c1.4,0.4,1.9,1,2.3,2.6c-0.3,0.1-0.6,0.3-1,0.4
	C39.5,124.2,37.7,124.2,35.9,124.2z M53.6,40.6c0.7-0.7,0.9-2.1,0.9-3.3c0-1,0-1.9,0-2.9c0.7-0.1,1.2-0.1,1.8-0.2
	c0.1-0.1,0.1-0.1,0.2-0.2c-1.7-1.1-1.7-2.8-2-4.5c-0.2-1.1-0.8-1.9-1.7-2.5c-1.6-1.1-3.4-1.3-5.2-1.1c-2.7,0.3-4.6,2.1-4.7,4.9
	c0,0.5,0,1,0,1.5c0,0.4-0.1,0.7-0.3,1.3c-0.6,0.9-0.6,0.9-1.1,1.7c-0.3,0.6-0.5,1-0.8,1.5c0.8,0.1,1.6,0.2,2.4,0.3
	c0,1.3,0.1,2.5,0.2,3.7c0,0.3,0,0.6-0.1,0.8c-3.5,2-4.5,3.7-4.5,7.8c0,5.2,0.1,10.3,0.1,15.5c0,2,0,4.1-0.4,6.1
	c-0.4,2.5-1.1,4.8-1.7,7.2c-0.1,0.4-0.1,0.8-0.2,1.2c3.6,0,7.1,0,10.7,0c0-0.6,0-1.1,0-1.5c-0.1-5.2-0.2-10.3-0.2-15.5
	c0-3.4-0.1-6.7-0.1-10c0-0.6-0.2-1.3,0.9-1.5c0.4,4.6,0.1,9.1,0.4,13.7c2.5,0,4.8,0,7.2,0c0.3-2.7,0.7-5.3,0.9-7.9
	c0.1-1.7,0-3.4-0.3-5.2c-0.4-2.7-1.7-4.9-3.4-7c-0.3-0.4-0.8-0.5-0.4-1.4C52.5,42.3,52.9,41.3,53.6,40.6z M44.3,37
	c1.3-0.7,3,0.5,3.9-1.4c1.2,1.9,2.3,3.5,3.3,4.9c-0.3,0.9-0.6,1.5-0.9,2.3c-1.9-0.9-3.8-1.9-6.3-1.7C44.3,39.7,44.3,38.4,44.3,37z
	 M52.5,40.4c-1.5-1.9-2.5-3.7-3.4-5.7c1.4-0.7,2.7-0.4,4.2-0.4C53.2,36.3,53.9,38.3,52.5,40.4z M48.3,66.6c0,4.3,0,8.4,0,12.6
	c3.7,0,7.1,0,10.7,0c-1.2-4.2-2.4-8.4-3.6-12.6C52.9,66.6,50.6,66.6,48.3,66.6z M54.9,124c0.3,0,0.6,0,0.9,0c1.5,0.1,3,0.2,4.6,0.3
	c1.8,0,3.6,0,5.3,0c0.4-0.1,0.7-0.3,1-0.4c-0.4-1.6-0.9-2.2-2.3-2.6c-0.8-0.3-1.5-0.4-2.2-0.7c-0.7-0.3-1.2-0.7-1.3-1.1
	c0.8-1.5,1.4-2.6,1.9-3.8c1-2.4,1.8-4.8,2.7-7.2c0.2-0.6,0.3-1.2,0.5-2c-3.4,0-6.6,0-10,0c-0.1,0.6-0.3,1.1-0.4,1.7
	c-0.4,2.4-0.8,4.8-1.3,7.2c-0.2,1.2-0.5,2.4,0.6,3.4c-1,1.6-1.9,3.2-1.7,5.3C53.9,124,54.4,124,54.9,124z M78.1,40.6
	c0.7-0.7,0.9-2.1,0.9-3.3c0-1,0-1.9,0-2.9c0.7-0.1,1.2-0.1,1.8-0.2c0.1-0.1,0.1-0.1,0.2-0.2c-1.7-1.1-1.7-2.8-2-4.5
	c-0.2-1.1-0.8-1.9-1.7-2.5c-1.6-1.1-3.4-1.3-5.2-1.1c-2.7,0.3-4.6,2.1-4.7,4.9c0,0.5,0,1,0,1.5c0,0.4-0.1,0.7-0.3,1.3
	c-0.6,0.9-0.6,0.9-1.1,1.7c-0.3,0.6-0.5,1-0.8,1.5c0.8,0.1,1.6,0.2,2.4,0.3c0,1.3,0.1,2.5,0.2,3.7c0,0.3,0,0.6-0.1,0.8
	c-3.5,2-4.5,3.7-4.5,7.8c0,5.2,0.1,10.3,0.1,15.5c0,2,0,4.1-0.4,6.1c-0.4,2.5-1.1,4.8-1.7,7.2c-0.1,0.4-0.1,0.8-0.2,1.2
	c3.6,0,7.1,0,10.7,0c0-0.6,0-1.1,0-1.5c-0.1-5.2-0.2-10.3-0.2-15.5c0-3.4-0.1-6.7-0.1-10c0-0.6-0.2-1.3,0.9-1.5
	c0.4,4.6,0.1,9.1,0.4,13.7c2.5,0,4.8,0,7.2,0c0.3-2.7,0.7-5.3,0.9-7.9c0.1-1.7,0-3.4-0.3-5.2c-0.4-2.7-1.7-4.9-3.4-7
	c-0.3-0.4-0.8-0.5-0.4-1.4C77.1,42.3,77.4,41.3,78.1,40.6z M68.9,37c1.3-0.7,3,0.5,3.9-1.4c1.2,1.9,2.3,3.5,3.3,4.9
	c-0.3,0.9-0.6,1.5-0.9,2.3c-1.9-0.9-3.8-1.9-6.3-1.7C68.9,39.7,68.9,38.4,68.9,37z M77.1,40.4c-1.5-1.9-2.5-3.7-3.4-5.7
	c1.4-0.7,2.7-0.4,4.2-0.4C77.7,36.3,78.4,38.3,77.1,40.4z M72.8,66.6c0,4.3,0,8.4,0,12.6c3.7,0,7.1,0,10.7,0
	c-1.2-4.2-2.4-8.4-3.6-12.6C77.5,66.6,75.2,66.6,72.8,66.6z M79.5,124c0.3,0,0.6,0,0.9,0c1.5,0.1,3,0.2,4.6,0.3c1.8,0,3.6,0,5.3,0
	c0.4-0.1,0.7-0.3,1-0.4c-0.4-1.6-0.9-2.2-2.3-2.6c-0.8-0.3-1.5-0.4-2.2-0.7c-0.7-0.3-1.2-0.7-1.3-1.1c0.8-1.5,1.4-2.6,1.9-3.8
	c1-2.4,1.8-4.8,2.7-7.2c0.2-0.6,0.3-1.2,0.5-2c-3.4,0-6.6,0-10,0c-0.1,0.6-0.3,1.1-0.4,1.7c-0.4,2.4-0.8,4.8-1.3,7.2
	c-0.2,1.2-0.5,2.4,0.6,3.4c-1,1.6-1.9,3.2-1.7,5.3C78.4,124,79,124,79.5,124z M102.7,40.6c0.7-0.7,0.9-2.1,0.9-3.3c0-1,0-1.9,0-2.9
	c0.7-0.1,1.2-0.1,1.8-0.2c0.1-0.1,0.1-0.1,0.2-0.2c-1.7-1.1-1.7-2.8-2-4.5c-0.2-1.1-0.8-1.9-1.7-2.5c-1.6-1.1-3.4-1.3-5.2-1.1
	c-2.7,0.3-4.6,2.1-4.7,4.9c0,0.5,0,1,0,1.5c0,0.4-0.1,0.7-0.3,1.3c-0.6,0.9-0.6,0.9-1.1,1.7c-0.3,0.6-0.5,1-0.8,1.5
	c0.8,0.1,1.6,0.2,2.4,0.3c0,1.3,0.1,2.5,0.2,3.7c0,0.3,0,0.6-0.1,0.8c-3.5,2-4.5,3.7-4.5,7.8c0,5.2,0.1,10.3,0.1,15.5
	c0,2,0,4.1-0.4,6.1c-0.4,2.5-1.1,4.8-1.7,7.2c-0.1,0.4-0.1,0.8-0.2,1.2c3.6,0,7.1,0,10.7,0c0-0.6,0-1.1,0-1.5
	c-0.1-5.2-0.2-10.3-0.2-15.5c0-3.4-0.1-6.7-0.1-10c0-0.6-0.2-1.3,0.9-1.5c0.4,4.6,0.1,9.1,0.4,13.7c2.5,0,4.8,0,7.2,0
	c0.3-2.7,0.7-5.3,0.9-7.9c0.1-1.7,0-3.4-0.3-5.2c-0.4-2.7-1.7-4.9-3.4-7c-0.3-0.4-0.8-0.5-0.4-1.4C101.7,42.3,102,41.3,102.7,40.6z
	 M93.4,37c1.3-0.7,3,0.5,3.9-1.4c1.2,1.9,2.3,3.5,3.3,4.9c-0.3,0.9-0.6,1.5-0.9,2.3c-1.9-0.9-3.8-1.9-6.3-1.7
	C93.4,39.7,93.4,38.4,93.4,37z M101.7,40.4c-1.5-1.9-2.5-3.7-3.4-5.7c1.4-0.7,2.7-0.4,4.2-0.4C102.3,36.3,103,38.3,101.7,40.4z
	 M112.7,100.8c-1.2-4.9-2.5-9.9-3.8-14.8c-0.5-1.9-0.9-3.7-1.4-5.6c-3.7,0-7.3,0-11.1,0c0,0.6-0.1,1.1-0.1,1.6
	c-0.1,0.8-0.1,1.6-0.3,2.3c-0.4,1.9-1.7,2.8-3.5,2.8c-0.1,0-0.3,0-0.4,0c-1.6-0.1-2.7-1.3-2.9-3.2c-0.1-1.1-0.3-2.3-0.4-3.6
	c-0.8,0-1.6-0.1-2.6-0.1c-0.3,1.2-0.4,2.3-0.7,3.4c-1.4,6.1-2.8,12.1-4.2,18.2c-0.1,0.6-0.2,1.2-0.2,1.8c0,1.3,0.4,1.8,1.7,1.8
	c0.1,0,0.1,0,0.2,0c1.1,0,2.3,0,3.5,0c0.7,0,1.5,0,2.2,0c0.1,0,0.1,0,0.2,0c1.4,0,2.1-0.8,2.7-1.9c0.2-0.4,0.4-0.8,0.5-1.3
	c1.3-3.5,2.6-7.1,3.8-10.6c0.2-0.5,0.5-1.1,0.9-1.7c0.3,0.6,0.5,1,0.6,1.4c1.5,3.8,2.9,7.6,4.4,11.3c0.8,2,1.7,2.8,3.3,2.8
	c0.2,0,0.4,0,0.5,0c0.6-0.1,1.2-0.1,1.9-0.1c1.1,0,2.2,0.1,3.3,0.1h0c1.5,0,2.1-0.5,2.1-1.9C113,102.5,112.9,101.6,112.7,100.8z
	 M103.5,107.1c0.9,2.5,1.7,5,2.7,7.5c0.8,1.8,1,3.9,2.8,5c-0.2,1.5-1.1,2.8-0.5,4.4c4.2-0.2,8.5,0.2,12.8-0.2
	c-0.4-1.6-1.4-2.3-2.7-2.7c-0.8-0.2-1.6-0.4-2.3-0.7c-0.6-0.2-1.1-0.7-1.6-1.1c0.8-1.1,0.7-2.3,0.4-3.4c-0.3-1.4-0.5-2.8-0.8-4.2
	c-0.4-1.8-0.8-3.5-1.1-5.4c-3.3,0-6.5-0.1-9.8,0C103.4,106.8,103.5,107,103.5,107.1z M97.4,66.6c0,4.3,0,8.4,0,12.6
	c3.7,0,7.1,0,10.7,0c-1.2-4.2-2.4-8.4-3.6-12.6C102,66.6,99.7,66.6,97.4,66.6z M80.2,103.5c0-0.6,0.1-1.3,0.3-2
	c0.8-3.2,1.5-6.4,2.3-9.6c0.5-2.1,1-4.3,1.5-6.4c-0.4-1.7-0.8-3.4-1.3-5c-3.7,0-7.3,0-11.1,0c0,0.6-0.1,1.1-0.1,1.6
	c-0.1,0.8-0.1,1.6-0.3,2.3c-0.4,1.9-1.7,2.8-3.5,2.8c-0.1,0-0.3,0-0.4,0c-1.6-0.1-2.7-1.3-2.9-3.2c-0.1-1.1-0.3-2.3-0.4-3.6
	c-0.8,0-1.6-0.1-2.6-0.1c-0.3,1.2-0.4,2.3-0.7,3.4c-1.4,6.1-2.8,12.1-4.2,18.2c-0.1,0.6-0.2,1.2-0.2,1.8c0,1.3,0.4,1.8,1.7,1.8
	c0.1,0,0.1,0,0.2,0c1.1,0,2.3,0,3.5,0c0.7,0,1.5,0,2.2,0c0.1,0,0.1,0,0.2,0c1.4,0,2.1-0.8,2.7-1.9c0.2-0.4,0.4-0.8,0.5-1.3
	c1.3-3.5,2.6-7.1,3.8-10.6c0.2-0.5,0.5-1.1,0.9-1.7c0.3,0.6,0.5,1,0.6,1.4c1.5,3.8,2.9,7.6,4.4,11.3c0.8,2,1.7,2.8,3.3,2.8
	c0,0,0,0,0,0C80.2,104.8,80.2,104.1,80.2,103.5z M55.7,103.5c0-0.6,0.1-1.3,0.3-2c0.8-3.2,1.5-6.4,2.3-9.6c0.5-2.1,1-4.3,1.5-6.4
	c-0.4-1.7-0.8-3.4-1.3-5c-3.7,0-7.3,0-11.1,0c0,0.6-0.1,1.1-0.1,1.6c-0.1,0.8-0.1,1.6-0.3,2.3c-0.5,2-1.9,3-3.9,2.8
	c-1.6-0.1-2.7-1.3-2.9-3.2c-0.1-1.1-0.3-2.3-0.4-3.6c-0.8,0-1.6-0.1-2.6-0.1c-0.2,1.2-0.4,2.3-0.7,3.3c-1.4,6.1-2.8,12.1-4.2,18.2
	c-0.1,0.6-0.2,1.2-0.2,1.8c0,1.3,0.4,1.8,1.7,1.8c1.9,0,3.9-0.1,5.9,0c1.5,0.1,2.3-0.8,3-1.9c0.2-0.4,0.4-0.8,0.5-1.3
	c1.3-3.5,2.6-7.1,3.8-10.6c0.2-0.5,0.5-1.1,0.9-1.7c0.3,0.6,0.5,1,0.6,1.4c1.5,3.8,2.9,7.6,4.4,11.3c0.8,2.1,1.7,2.8,3.3,2.8
	C55.7,104.8,55.7,104.1,55.7,103.5z M90.1,119.4c0.8-1.1,0.7-2.3,0.4-3.4c-0.3-1.3-0.5-2.5-0.7-3.8c-0.5,1.3-0.9,2.5-1.4,3.7
	c-0.4,0.8-0.8,1.6-1.2,2.5c-0.2,0.3-0.3,0.6-0.5,0.9c0.1,0.1,0.3,0.2,0.6,0.3c0.4,0.1,0.8,0.2,1.2,0.4c0.3,0.1,0.6,0.2,0.9,0.3
	c1.7,0.6,2.4,1.3,2.9,3.2l0.1,0.4c1.5,0,2.9-0.1,4.4-0.2c-0.4-1.6-1.4-2.3-2.7-2.7c-0.8-0.2-1.6-0.4-2.3-0.7
	C91.1,120.3,90.6,119.8,90.1,119.4z M79.4,108.6c0-0.2,0.1-0.4,0.1-0.6c0-0.4,0.1-0.8,0.2-1.1c0-0.1,0.1-0.3,0.1-0.4
	c-0.4,0-0.7,0-1.1,0c0.1,0.4,0.2,0.5,0.2,0.7C79.1,107.6,79.2,108.1,79.4,108.6z M65.5,119.4c0.8-1.1,0.7-2.3,0.4-3.4
	c-0.3-1.3-0.5-2.6-0.8-3.9c-0.5,1.3-0.9,2.6-1.4,3.8c-0.4,0.8-0.8,1.6-1.2,2.5c-0.2,0.3-0.3,0.6-0.5,0.9c0.1,0.1,0.3,0.2,0.6,0.3
	c0.4,0.1,0.8,0.2,1.2,0.4c0.3,0.1,0.6,0.2,0.9,0.3c1.7,0.6,2.4,1.3,2.9,3.2l0.1,0.4c1.5,0,2.9-0.1,4.4-0.2c-0.4-1.6-1.4-2.3-2.7-2.7
	c-0.8-0.2-1.6-0.4-2.3-0.7C66.6,120.3,66.1,119.8,65.5,119.4z M54.8,108.5c0-0.2,0.1-0.3,0.1-0.5c0-0.4,0.1-0.8,0.2-1.1
	c0-0.2,0.1-0.3,0.1-0.4c-0.4,0-0.7,0-1.1,0c0.1,0.4,0.1,0.5,0.2,0.7C54.5,107.6,54.7,108,54.8,108.5z"/>
</symbol>

<symbol id="mediator-7" fill="currentColor"> <!-- camera -->
	<circle id="XMLID_15_" cx="75" cy="75" r="75" fill="#ffffff" /> 
	<path id="XMLID_45_" d="M114.5,78.2v3.1H94.7v-7.8c7.3-2.9,12.4-9.9,12.4-18c0-10.8-9-19.5-20-19.5
	c-9.1,0-16.8,5.9-19.2,14.1h-1.6C64,42,56.3,36,47.2,36c-11,0-20,8.8-20,19.5c0,9.1,6.5,16.8,15.2,18.9v29.4c0,1.5,1.2,2.7,2.7,2.7
	h15.2v5.8c0,1,0.8,1.8,1.8,1.8h13.4c1,0,1.8-0.8,1.8-1.8v-5.8h14.8c1.5,0,2.7-1.2,2.7-2.7v-6.7h19.8v3.1h8.3v-22L114.5,78.2
	L114.5,78.2z M35.1,60.4c0,0-5.2-15.9,12.8-18.4L35.1,60.4z M86.6,89.2l-33.2-6h33.2V89.2z M85,43.9c18.1,1.2,14.1,17.5,14.1,17.5
	L85,43.9z"/>
</symbol>

<symbol id="mediator-8" fill="currentColor"> <!-- montage -->
	<circle id="XMLID_15_" cx="75" cy="75" r="75" fill="#ffffff" /> 
	<path d="M110,89.4v11H73.3V60.8h7.5l-3.4-3.3h-4.1v-3.3H70v3.3h-6.7v-3.3h-3.4v3.3h-6.7v-3.3h-3.4v3.3h-6.7v-3.3h-3.4
	v3.3h-6.7v-6.6h3.4h3.4h3.4h6.7h3.4H60h3.4H70h0.7l-3.4-3.3H29.9v66h83.5V92.6L110,89.4z M33.1,60.9h36.8v39.6H33.1V60.9L33.1,60.9z
	 M110,107v3.3h-6.7H100h-6.7H90h-6.7H80h-6.7H70h-6.7H60h-6.7H50h-6.7H40h-3.4h-3.4v-6.6h6.7v3.3h3.4v-3.3h6.7v3.3h3.3v-3.3h6.7v3.3
	h3.4v-3.3H70v3.3h3.3v-3.3h6.7v3.3h3.3v-3.3h6.7v3.3h3.4v-3.3h6.7v3.3h3.4v-3.3h6.7L110,107L110,107z M37.5,64.9h29.1v31.9H37.5
	V64.9z M96.7,80.5l10.6,16.4H76.6V72.5L96.7,80.5z M104,53.9c-0.9,0-1.5,0.8-1.5,1.8c0,1,0.7,1.8,1.6,1.7c0.8,0,1.5-0.8,1.5-1.8
	C105.6,54.7,104.9,53.9,104,53.9z M112.7,39.5c-2.3,0-4.2,2.3-4.2,4.9c0,2.7,2,4.8,4.4,4.8c2.4,0,4.2-2.3,4.2-4.9
	C117,41.5,115.1,39.4,112.7,39.5z M113.1,62.1c-2.3,0-4.2,2.3-4.2,4.9c0,2.7,2,4.8,4.4,4.8c2.4,0,4.2-2.3,4.2-4.9
	C117.4,64.2,115.5,62.1,113.1,62.1z M113.3,74.9c-3.8,0.1-7.1-3.4-7.1-7.8c0-2.3,0.8-4.4,2.2-5.9l-4.6-2.7L86.6,70.4
	c-2.6,1.5-5.2,0.5-7.8-1.5l20.4-13L78.4,43.6c2.6-2,5.2-3.1,7.8-1.8l17.6,11.1l4.3-2.8c-1.4-1.4-2.3-3.4-2.3-5.7c-0.1-4.3,3-8,6.9-8
	c3.8-0.1,7.1,3.4,7.2,7.7c0.1,4.3-2.9,7.9-6.7,8l-5,3.4l5.4,3.4c3.7,0.2,6.6,3.5,6.7,7.7C120.3,71.2,117.2,74.8,113.3,74.9z"/>
</symbol>

<symbol id="mediator-9" fill="currentColor"> <!-- cinema -->
	<circle id="XMLID_15_" cx="75" cy="75" r="75" fill="#ffffff" /> 
	<path d="M32.2,110.8c-0.5-0.6,0.1-18.8,0.1-19.4c0-0.9,0-1.9,0-2.8c0-1.5,0.3-2.9,1-4.3c0.6-1.2,1.6-1.9,3-2
	c0.8,0,1.5-0.2,2.3-0.5c0.5-0.2,1-0.6,1.3-1.1c0.2-0.4,0.2-0.7,0-1.1c-0.9-1.9-1.2-3.9-1.1-6c0.2-2.5,1.1-4.7,2.9-6.5
	c2.4-2.3,5.9-2.3,8.3,0c1.3,1.2,2,2.7,2.5,4.4c0.1,0.2,0.2,0.5,0.3,0.8c0.3-0.1,0.5-0.2,0.7-0.3c2-0.8,3.9-0.6,5.7,0.6
	c1.1,0.8,1.9,1.8,2.6,2.9c0.6,1.1,0.9,2.3,1.1,3.6c0,0.2,0,0.4,0.1,0.5c0.1,0,0.1,0,0.2,0c0.2-0.1,0.4-0.3,0.5-0.4
	c1.1-0.9,2.3-1.5,3.7-1.8c2.1-0.4,3.9,0.1,5.5,1.5c1.4,1.3,2.1,2.9,2.4,4.8c0.1,0.5,0.1,1,0.1,1.5c0,0.7,0.1,0.7,0.7,0.7
	c0,0,0.1,0,0.1,0c1.3-0.1,2.5,0.3,3.6,1.1c0.7,0.5,1.1,1.1,1.6,1.8c0.1,0.1,0.2,0.2,0.3,0.4c0.1-0.1,0.1-0.1,0.1-0.2
	c0.1-0.2,0.1-0.3,0.2-0.5c0.4-1.4,1.2-2.7,2.3-3.6c1.9-1.6,4.6-1.7,6.5,0c0.7,0.6,1.3,1.3,1.7,2.1c1.2,2.3,1.4,4.7,0.8,7.2
	c-0.5,1.9-1.6,3.6-3.4,4.6c-0.4,0.2-0.4,0.4-0.3,0.8c0.2,0.8,0.7,1.4,1.3,1.9c0.8,0.6,1.6,1,2.5,1.2c1,0.2,1.9,0.4,3,0.5
	c1.1,0.2,1.8,0.7,2.3,1.6c0.1,0.3,0.3,0.6,0.3,1c0.1,0.8,0.1,1.5,0.2,2.3c0,0.2,0,0.4,0,0.5c0.1,0-0.1,2.3-0.1,2.3L32.2,110.8z
	 M118.4,71.3c0,0.4,0,0.8,0,1.2c-0.1,3.1-2.3,4.9-5.4,4.3c-1.1-0.2-2.2-0.6-3.2-1.1c-2.2-0.9-4.4-1.9-6.5-2.9
	c-9.7-4.3-19.3-8.7-29-12.9c-11.7-5.2-23.4-10.3-35.1-15.5c-1.6-0.8-3.3-1.5-4.9-2.2c-0.7-0.3-1.4-0.7-2-1c-0.1-0.1-0.3-0.2-0.4-0.3
	c-0.2-0.2-0.1-0.6,0.2-0.7c0.2,0,0.5,0,0.7,0c2.1,0,4.2,0,6.3,0c6.5,0,12.9-0.1,19.3-0.1c4.8,0,9.6-0.1,14.4-0.1c0.2,0,0.4,0,0.5,0
	v0c3.9,0,7.9,0,11.9-0.1c4.2,0,8.4-0.1,12.5-0.1c2.9,0,5.7-0.1,8.6-0.1c2.3,0,4.6-0.1,6.9-0.1c0.6,0,1.3,0,1.9,0.2
	c1.3,0.4,2.2,1.2,2.6,2.5c0.2,0.7,0.3,1.5,0.4,2.3c0,1.8,0,3.6,0,5.4c0,4.3,0.1,8.6,0.1,12.9C118.2,65.5,118.3,68.4,118.4,71.3z
	 M103.7,41.8c0,0,0-0.1,0-0.2c-0.3,0-0.6,0-0.8,0c-4.1,0-8.2,0.1-12.2,0.1c-4.4,0-8.9,0.1-13.3,0.1c-4.2,0-8.4,0.1-12.5,0.1
	c-5.5,0-11,0.1-16.5,0.1c-2.7,0-5.3,0-8,0c-0.3,0-0.6,0-1,0.3c0.3,0.1,0.5,0.3,0.8,0.4c11.3,4.9,22.6,9.9,33.9,14.8
	c4.2,1.9,8.4,3.7,12.7,5.5c0.2,0.1,0.4,0.2,0.8,0.3c0-0.7,0-1.3,0-1.9c0-3.2,0-6.5-0.1-9.8c0-0.8,0-1.6,0.1-2.4
	c0.1-1.2,0.7-2.1,1.8-2.7c0.4-0.3,0.9-0.5,1.4-0.6c2.3-0.8,4.6-1.4,6.9-2.1c1.9-0.6,3.7-1.1,5.5-1.7C103.2,42,103.4,41.9,103.7,41.8
	z"/>
</symbol>

<symbol id="mediator-10" fill="currentColor"> <!-- exposure -->
	<circle id="XMLID_15_" cx="75" cy="75" r="75" fill="#ffffff" /> 
	<path d="M110,14.8c-8.1-1-9.2,0.5-11.9,2.9c-2.4,2.1-6,10.1-3.9,12.4c-1.7,4.4-3,8.4-3.3,9.2c-1.5-0.5-2.5-0.8-2.5-0.8
	c-2-0.5-4.5-1.8-9.9-0.4C73.2,39.5,44.1,52.7,40.7,60c-2.2,4.7-2.2,20-2.5,25.6c0,0,0,0.1-0.1,0.1c-2,1.6-2.6,3.5-2.9,5
	c-0.1,0.7,0.1,4.3,0.5,6.4c-0.6,1.1-0.8,2.3-0.8,2.3c-0.8,2.8,3.3,6,8.5,9.3c1.4,0.9,2.1,0.8,2.2,1.1c0,0.4-0.6,0.7-3.8-1.3
	c-4-2.5-7.5-4.7-7.5-2.6c0,0.7,0.9,2,1.8,3.5c0.7,1.2,0,2.4,0.3,3.7c0.3,1.4,1.6,3.3,1.8,4.2c2.6,10.3,3.3,18.8,3.4,24.9
	c6.7,3.4,14,5.8,21.7,7c-1-7-2.7-18.8-2.7-20.4c0-0.3,3.6,6,4.9,9.1c1.7,3.8,3.7,8.5,5.2,12.1C72,150,73.5,150,75,150
	c6.6,0,13.1-0.9,19.2-2.5c-3-9.3-8.5-20.9-9-23.2c-0.5-2.2,0.1-3.9,0.1-6.4c0-1.4-0.2-2.1-0.6-2.6c0.6-0.6,0.9-1,0.9-1
	c0.7-0.9,1.1-2.9,1.1-4.9l0.3,0.5c0,0,24.6-15.9,29-21.8c3.8-5-0.6-32.9-4-36.5c-1.6-1.7-4-3.5-6.6-5.1c0-1.1,0.3-2.4,0.5-2.6
	l0.2-0.1c0.8-0.5,0.8-0.5,1.6-0.5c0.4,0,1.1,0,2.2,0c4.9-0.1,7.4-5.7,9.8-14.7c0-0.1,0-0.2,0.1-0.3c1.2-0.3,1.9-1.2,2-3
	C122.3,21.9,118,15.8,110,14.8z M51.9,64.8c2.9-3.2,15.3-10.6,17-11.4c-1.2,1.8-13.4,19.4-19.8,28.2C49.7,76.3,49.6,67.7,51.9,64.8z
	 M36.5,90.9c0.2-0.8,0.6-2.8,2.6-4.3l0.1-0.1l0.1-0.2c0.1-0.1,0.1-0.2,0.2-0.3l7-0.6c0.2,1.4,0.5,2.9,0.8,4.2
	c0.4,1.9,0.9,3.9,0.6,4.6c-0.5,1.2-1.2,1.6-2.1,2c-0.3,0.2-0.7,0.3-1,0.5c-0.2,0.1-0.4,0.2-0.6,0.4c-0.9,0.6-3.8,2.4-4.5,2.1
	c-0.9-0.3-1.9-0.7-2.3-1.4C36.9,97.1,36.4,91.6,36.5,90.9z M65.5,108.6c-4.6,0.5-8.3,0.3-11.6-0.6c-0.9-3.3-0.3-6.6,1.8-10.1
	l-1.1-0.7c-2.1,3.6-2.9,7-2.2,10.3c-1.2-0.4-2.3-1-3.5-1.6c-3.6-2.1-3.6-4.2-5.4-6.8c0.4-0.3,0.9-0.5,1.3-0.8
	c0.2-0.1,0.4-0.3,0.6-0.4c0.3-0.2,0.6-0.3,0.9-0.4c1-0.4,2.1-0.9,2.8-2.7c0.5-1.2,0-3.1-0.5-5.4c-0.2-0.9-0.4-1.9-0.6-2.8
	c6.5,1.8,21.9,8.7,32,14.2c0.2,0.1,0.5,0.2,0.7,0.3c-3.3,1.3-6.6,2.9-7.6,4.7c-0.4,0.6-0.5,1.5-0.6,2.5
	C70.4,108.1,68.1,108.3,65.5,108.6z M85.6,107.8l-0.2,0.2l0,0.3c0.2,2.2-0.3,4.5-0.8,5.1c-0.9,1.1-4.3,4.5-5.6,4.5c0,0,0,0,0,0
	c-1.1,0-2.2-0.3-2.9-0.7c-0.8-0.5-1.2-2.1-1.4-2.9c0-0.1-0.1-0.2-0.1-0.3c-1-3.9-1.2-6.4-0.5-7.6c0.8-1.3,3.7-2.9,8.3-4.6l3.3,5.8
	C85.7,107.6,85.6,107.7,85.6,107.8z M102.2,83.1c-3.1,3-12,9.2-18.6,15.1c4.1-7.4,18.4-31.4,19.3-30.9
	C104.5,71.4,103.2,82.1,102.2,83.1z M110.1,42c-1.1,0-1.7,0-2.1,0c-1.1,0-1.2,0-2.3,0.6l-0.2,0.1c-0.7,0.4-1.1,1.8-1.2,3
	c-2.1-1.3-4.3-2.5-6.3-3.4c-2.1-1-4.2-1.9-5.9-2.5c0.2-0.7,1.6-4.7,3.3-9c2.8,0.5,5,0.7,6.1-2.7c1.1-3.4,3.4-5.1,5.3-5
	c1.9,0.2,3.5,2.4,7.6,4.1c1.6,0.7,3,1.1,4.3,1.2C116,38.3,113.7,42,110.1,42z"/>
</symbol>


<!-- GOVERNED TRANSMISSIONS (Mediator 11-15)  -->

<symbol id="mediator-11" fill="currentColor"> <!-- radio -->
	<circle id="XMLID_15_" cx="75" cy="75" r="75" fill="#ffffff" /> 
	<path d="M135.2,93.3l-27.3-50.1v-4.5h-4.4v4.5l-9.9,18.1L77.8,35.6v-6h-4.4v6L57.6,61.5l-10-18.3v-4.5h-4.4v4.5
	L15.8,93.3h-3.5v4.4h125.3v-4.4H135.2z M103.4,79.3v4.2L93.3,72.5l3.3-4.4L103.4,79.3z M97.2,67.3l6.3-8.4v18.6L97.2,67.3z
	 M107.9,86.5l3.3,5.4l-3.3-3.6V86.5z M92.7,71.8l-2.4-2.6l3.3-6.1l2.5,4.1L92.7,71.8z M92.1,72.5L78.7,90.4L89.8,70L92.1,72.5z
	 M77.8,90.1V56.9l11.4,12.4L77.8,90.1z M73.4,90.5L61.9,69.5l11.5-12.5V90.5z M72.3,90.4L59,72.6l2.3-2.5L72.3,90.4z M58.4,71.9
	L55,67.4l2.5-4.1l3.3,6L58.4,71.9z M57.8,72.6L47.6,83.8v-4.1l7-11.4L57.8,72.6z M43.2,88.6l-3.1,3.3l3.1-5V88.6z M47.6,77.9v-19
	l6.4,8.5L47.6,77.9z M43.2,85.2l-5,8.1H17.3l25.8-34.4V85.2z M43.2,89.9v3.4H40L43.2,89.9z M47.6,85.1l10.8-11.8l15,20H47.6V85.1z
	 M77.8,93l14.9-19.8l10.7,11.6v8.5H77.8V93z M107.9,89.6l3.4,3.7h-3.4V89.6z M107.9,84.8V58.9l25.8,34.4H113L107.9,84.8z
	 M132.6,90.4l-24.7-32.9V45L132.6,90.4z M103.4,45v12.4l-6.8,9l-2.6-4.3L103.4,45z M93,62.2l-3.4,6.2L77.8,55.6V37.3L93,62.2z
	 M73.4,37.3v18.3l-11.9,13l-3.4-6.2L73.4,37.3z M57.1,62.4l-2.6,4.2l-6.9-9.2V45L57.1,62.4z M43.2,57.5L18.4,90.4L43.2,45V57.5z"/>
</symbol>

<symbol id="mediator-12" fill="currentColor"> <!-- statistics -->
	<circle id="XMLID_15_" cx="75" cy="75" r="75" fill="#ffffff" /> 
	<path d="M75,81.6c0,3,0,6,0,8.9c-3.5,1.5-7.2,2.2-10.9,2.2c-5.3,0-10.7-1.5-15.3-4.5c-0.1-3.8-0.1-7.7-0.2-11.5
	c0-1.6-0.1-3.1-0.1-4.7c0-1,0-2,0.1-3c0.1-1,0.5-1.4,1.5-1.6c0.4-0.1,0.8-0.1,1.3-0.1c2.1,0,4.3,0,6.4,0c0.3,0,0.5,0,0.9,0
	c0-0.4,0-0.8,0-1.1c-0.3-2.6-0.6-5.2-0.8-7.8c0-0.6,0-1.1,0-1.8c0-1.8,1.1-3,3-3.1c0.9-0.1,1.8,0,2.7,0.3c1,0.3,1.7,1,1.7,2.4
	c0,3.4-0.2,6.7-0.7,10c0,0.2,0,0.5,0,0.8c0.4,0,0.6,0,0.9,0c1.9,0,3.8,0,5.7,0c0.6,0,1.2,0,1.8,0.1c1,0.1,1.7,0.7,1.9,1.7
	c0.1,0.5,0.2,1,0.2,1.5C75,74.1,75,77.8,75,81.6z M90.6,71.6c-0.1-1.8-0.1-3.7-0.2-5.5s-1.1-3.1-2.7-3.4c-0.5-0.1-1-0.1-1.5-0.1
	c-1.5,0-2.9,0.1-4.3,0.1c-1.1,0-1.5-0.4-1.4-1.5c0.1-1.9,0.3-3.8,0.4-5.7c0-0.8,0.1-1.5,0-2.3c-0.1-1.5-1.1-2.6-2.4-3
	c-1.2-0.4-2.3-0.2-3.4,0.4c-1,0.6-1.5,1.4-1.5,2.6c0,0.4,0,0.7,0,1.1c0.2,2,0.4,4.1,0.7,6.2c0.1,0.7,0.2,1.4,0.3,2.2
	c-0.4,0-0.7,0-0.9,0c-1.9,0-3.7,0-5.6,0c-0.3,0-0.6,0-0.8,0.1c-0.2,0-0.5,0.3-0.5,0.4c-0.1,0.5-0.2,1-0.3,1.5c0,0.3,0.2,0.5,0.5,0.5
	c0.3,0,0.6,0,0.8,0c1.3,0,2.7,0,4,0c0.6,0,1.2,0.1,1.8,0.3c1.3,0.4,2.2,1.3,2.6,2.6c0.2,0.8,0.3,1.5,0.4,2.3
	c0.1,1.4,0.1,2.7,0.1,4.1c0.1,5,0.1,10,0.2,15.1c2.7-1.4,5.2-3.1,7.5-5.4c2.8-2.8,4.9-6.1,6.3-9.5C90.6,73.7,90.6,72.7,90.6,71.6z
	 M50,65.7c0.7-0.1,1.4-0.1,2-0.1c1.3,0,2.7,0,4,0c0.3,0,0.5,0,0.8,0c0-0.3,0-0.4,0-0.6c-0.2-1.9-0.4-3.7-0.7-5.5
	c-0.2-1.8-0.4-3.5,0.6-5.2c0.1-0.2,0-0.5,0-0.7c-0.2-0.4-0.5-0.6-0.8-0.9c-1.7-1.5-4.2-1.2-5.6-0.4c-0.7,0.4-1.1,0.9-1.1,1.7
	c0,0.4-0.1,0.8-0.1,1.2c0.1,2.4,0.3,4.8,0.8,7.2c0.1,0.7,0.3,1.3,0.4,2.1c-0.5,0-0.8,0.1-1.3,0.2c-1.9,0-3.7,0.1-5.6,0.2
	c-0.4,0-0.9,0.1-1.4,0.2c-1.1,0.3-1.8,1-1.9,2.2c-0.1,0.9-0.2,1.8-0.2,2.7c0,3.3,0,6.5,0.1,9.8c1.1,1.7,2.4,3.4,3.9,4.9
	c0.9,0.9,1.9,1.8,2.9,2.5c0-0.9,0-1.8-0.1-2.7c0-4.2,0-8.5-0.1-12.7c0-0.7,0-1.3,0-2C46.8,67.4,48,66,50,65.7z M66.1,53.9
	c0.4,0.6,0.6,1.3,0.8,2c0.3,1.4,0.4,2.8,0.1,4.2c-0.1,0.7,0,0.9,0.7,0.9c0.7,0,1.4,0,2.1,0c0.7,0,1.4,0,2.1,0c0.6,0,0.8-0.2,0.7-0.8
	c-0.2-1.7-0.4-3.4-0.6-5.1c-0.2-1.9,0-3.6,1.3-5c0.3-0.3,0.2-0.5,0-0.7c-0.4-0.3-0.8-0.7-1.3-0.9c-1.7-0.7-3.3-0.4-4.8,0.5
	C65.9,49.9,65,52.4,66.1,53.9z M61.5,51.7c0.8,0.2,1.5,0.3,2.3,0.4c0.1-0.4,0.1-0.6,0.3-0.8c0.4-2.1,1.6-3.4,3.6-4
	c0.2,0,0.4-0.1,0.6-0.2c0.3-0.1,0.4-0.4,0.2-0.7c-0.2-0.3-0.5-0.6-0.8-0.8c-0.8-0.5-1.8-0.6-2.7-0.5c-1.6,0.3-3,1-3.7,2.6
	c-0.5,1.1-0.4,2.3-0.1,3.4C61.1,51.4,61.4,51.6,61.5,51.7z M121.5,121.4c-0.9,0.9-2.3,1.5-3.6,1.5c-1.4,0-2.7-0.5-3.6-1.5L92.7,99.9
	L90.8,98l-1.2-1.2l1.5-1.5L88,92.3c-7,5.9-15.4,8.8-24,8.8c-9.5,0-19-3.6-26.2-10.8c-14.5-14.5-14.5-38,0-52.4
	C45.1,30.7,54.6,27,64.1,27s19,3.6,26.2,10.8C104,51.7,104.7,73.5,92.4,88l3.1,3.1l1.5-1.5l0.5,0.5l0.7,0.7l1.9,1.9l21.4,21.4
	C123.5,116.1,123.5,119.5,121.5,121.4z M85.9,42.2c-6-6-13.9-9.1-21.8-9.1c-7.9,0-15.8,3.1-21.8,9.1c-12,12-12,31.7,0,43.7
	c6,6,13.9,9.1,21.8,9.1c7.9,0,15.8-3.1,21.8-9.1C98,73.9,98,54.2,85.9,42.2z"/>
</symbol>

<symbol id="mediator-13" fill="currentColor"> <!-- marketing -->
	<circle id="XMLID_15_" cx="75" cy="75" r="75" fill="#ffffff" /> 
	<path d="M74.3,83.7c0,0.9-0.7,1.6-1.6,1.6c-0.9,0-1.6-0.7-1.6-1.6c0-0.9,0.7-1.6,1.6-1.6C73.5,82.1,74.3,82.8,74.3,83.7
	z M69.8,85.7c-0.9,0-1.6,0.7-1.6,1.6c0,0.9,0.7,1.6,1.6,1.6c0.9,0,1.6-0.7,1.6-1.6C71.4,86.5,70.7,85.7,69.8,85.7z M65.3,86.7
	c-0.9,0-1.6,0.7-1.6,1.6c0,0.9,0.7,1.6,1.6,1.6c0.9,0,1.6-0.7,1.6-1.6C67,87.4,66.2,86.7,65.3,86.7z M60.8,84.8
	c-0.9,0-1.6,0.7-1.6,1.6c0,0.9,0.7,1.6,1.6,1.6s1.6-0.7,1.6-1.6C62.4,85.6,61.7,84.8,60.8,84.8z M57.5,81.7c-0.9,0-1.6,0.7-1.6,1.6
	c0,0.9,0.7,1.6,1.6,1.6s1.6-0.7,1.6-1.6C59.1,82.5,58.4,81.7,57.5,81.7z M122.7,65.8c0.1-0.8,0.4-1.6,0.7-2.3
	c0.4-0.7,0.9-1.3,1.3-2.1c0.4-0.8,0.8-1.7,1.1-2.6c0.3-0.9,0.5-1.8,0.7-2.7c0.1-0.9,0.1-1.8,0-2.6c-0.1-0.9-0.3-1.7-0.5-2.3
	c-0.2-0.6-0.6-1.1-0.9-1.6l-1.2-1.6c0.3,0.7,0.5,1.3,0.7,2.4c0.2,1,0.3,2.5,0.1,3.6c-0.2,1.1-0.6,2-1.1,3c-0.5,1-1.2,2.1-1.7,3.5
	c-0.5,1.4-0.8,3-0.7,4.7c0.1,1.7,0.5,3.4,1,4.7c0.5,1.3,1.1,2.3,1.6,3.3l-0.6-2.7c-0.2-0.8-0.3-1.5-0.4-2.2
	C122.6,67.4,122.6,66.6,122.7,65.8z M97.9,44.1c-3.4,2.6-10,4.3-16.2,5.3c0,0-0.1,0-0.1,0c0.7,6.9,0.8,17-5,19.3
	c-1.1,0.4-2.3,0.7-3.6,0.7c-0.6,0-1.1,0-1.7-0.1c-0.1,1.3-0.2,5,1.9,9c0.3-0.3,0.7-0.4,1.1-0.4c0.9,0,1.6,0.7,1.6,1.6
	c0,0.9-0.7,1.6-1.6,1.6c-0.9,0-1.6-0.7-1.6-1.6c0-0.4,0.1-0.7,0.4-1L72,79c-2.3-4.6-2.2-8.7-2-10c-0.9-0.2-1.9-0.6-2.8-1
	c-2.6-1.2-4.3-2.6-4.4-2.7l0.8-1c0.1,0,4.6,3.7,9.4,3.7c1,0,2.1-0.2,3.1-0.6c3.9-1.6,4.6-8,4.5-13.2c0-1.6-0.2-3.2-0.3-4.7
	c-4.1,0.8-12.3,2.5-19.2,3.9c-0.6,2.9-0.7,7.2-0.9,9.4c-0.2,1.9-1.7,3-2.5,3.5c0.9,1,5.1,6.2-0.1,13.4l-0.2-0.1
	c-0.1,0.8-0.8,1.5-1.6,1.5c-0.9,0-1.6-0.7-1.6-1.6c0-0.9,0.7-1.6,1.6-1.6c0.5,0,0.9,0.2,1.2,0.5c4.2-6.6-0.2-11-0.4-11.1
	c0,0,0,0-0.3-0.2c-10.9,3.9-11.9-3.8-9.6-7.6c0.4-0.7,0.8-1.5,1.4-3.2c-2.4,0.5-7.3,1.3-9.8,0.8c-3.4-0.6-4-4.5-1.1-5.5
	c1.2-0.4,3.3-1.9,6.6-3.6c-0.9-0.8-1.7-1.9-1.9-3.2c-0.1-1.2,0.4-2.3,1.4-3.4c-2-1.7-2.9-3.8-2.2-5.8c0.7-2,2.7-3.3,5-3.5
	c0.2-1.2,0.7-2.1,1.5-2.9c1.6-1.5,4-1.8,5.2-1.7c0.8,0,1.6,0.3,2.3,0.6c1.2-2.1,2.5-4.2,7.8-5.4c5.9-1.3,9.4-0.1,12.3,2.9
	c0.8-0.1,1.6,0.1,2.3,0.4c1.5-3.1,3.9-3.8,5.5-3.4c1.8,0.4,3.1,2,3.3,4c4.6,0.8,4.8,3.6,4.8,4.4c-0.1,2-1.7,3.8-3.7,4.4
	c1,1.1,1.2,2.3,1.1,3.2c2.2-0.1,3.9-0.1,5.7-0.1C99.9,38.6,101.3,41.5,97.9,44.1z M64.4,36.1c-0.5-1.1-1.2-1.9-2.2-2.2
	c-1.7-0.6-3.7,0.3-3.7,0.3l-0.8,0.4l-0.2-0.8c0,0-0.3-1.2-1-2.4c-1-1.5-2.2-2.4-3.8-2.4c-1-0.1-3,0.3-4.2,1.4
	c-0.7,0.7-1.1,1.5-1.1,2.6l0,0.7l-0.7,0c-0.1,0-0.2,0-0.3,0c-1.8,0-3.5,1.1-4,2.6c-0.6,1.6,0.3,3.3,2.3,4.8l0.7,0.5l-0.7,0.6
	c-1.1,0.9-1.6,1.9-1.5,2.8c0.2,1.6,2,3,3,3.5L64.5,42C64.7,41.1,65.3,38.2,64.4,36.1z M85.6,35.7l-1.9-1.2l2.2-0.1
	c2.1-0.1,3.8-1.9,3.9-3.5c0.1-1.6-1.4-2.8-4.2-3.1l-0.6-0.1l0-0.6c0.1-1.9-1.1-3-2.2-3.2c-1.3-0.3-3.2,0.4-4.3,3.3L78.2,28l-0.7-0.4
	c-1.4-0.9-3.1-0.7-4.4,0.4c-1.3,1.1-2.2,3.4-0.9,6.2l0.5,1l-1.1-0.1c-0.3,0-0.7,0-1,0c-1.8,0-3.1,0.5-3.7,1.4
	c-0.7,1.1-0.3,2.9,1,5.2l19-1.6C87.3,39.3,88,37.1,85.6,35.7z M106.4,74.8c0.5,0.1,1.2,0.3,1.8,0.4c0,0,0,0,0,0
	c0.3,0.1,0.5,0.1,0.8,0.2c0,0,0,0,0,0l0,0c0.5,0.1,1,0.2,1.3,0.3c0,0,0.1,0,0.1,0c0.6,0,0-1.3,0-1.9c-0.1,0-0.2,0-0.3-0.1
	c0,0,0,0-0.1,0c0,0,0,0-0.1,0c0,0,0,0-0.1,0c0,0-0.1,0-0.1,0c0,0,0,0-0.1,0c0,0,0,0-0.1,0c0,0-0.1,0-0.1,0c0,0-0.1,0-0.1,0
	c0,0,0,0,0,0c0,0-0.1,0-0.2,0c-0.1,0-0.2,0-0.3-0.1l0,0c-0.4-0.1-1-0.2-1.8-0.4l0,0c0,0,0,0,0,0c-0.1,0-0.3,0.1-0.4,0.1c0,0,0,0,0,0
	c-0.1,0.1-0.2,0.1-0.3,0.2l0,0l0,0C106.2,73.9,106.1,74.5,106.4,74.8z M122.5,78.3c-0.4-0.1-0.7-0.1-3.9-0.8
	c-0.1,1.2-0.4,2.3-1.4,2.9c-1.1,0.6-1.8,1.1-2.9,1.9c-0.4,0.3-0.9,0.6-1.4,1c-0.3,0.2-0.6,0.4-0.9,0.6c-1.5,1.1-2.6,1.9-6.7,1.9
	c-1.7,0-2.8-0.1-3.5-0.1c-1.2-0.1-1.3-0.1-1.6,0.2c-0.1,0.3-0.2,0.9-0.4,1.7c2,7.3-0.8,20.4-3.6,29.6c0,0.3-0.1,0.7-0.1,1
	c0.4,0.1,0.7,0.3,1,0.6c0.6,0.8,0.6,2.4,0.1,3.7c-0.1,0.3-0.3,0.8-0.4,1.2c-0.5,1.7-1.2,3.9-2.9,4.2c-1.2,0.2-2,0.4-3.3,0.8
	c-0.5,0.1-1,0.3-1.6,0.4c-0.4,0.1-0.7,0.2-1,0.3c-0.6,0.2-1.1,0.3-1.7,0.4c-0.5,2.1-1.1,4.2-1.8,6l6.4,12.3
	c-5.1,1.1-10.3,1.7-15.8,1.7c-9.6,0-18.8-1.8-27.3-5.1l3.9-7.3l0,0c-0.4-1.4-0.7-3.1-1-5c-2.2,0.3-4.2,0.4-5.9,0.4
	c-2.1,0-3.7-0.2-4.6-0.8c-2.3-1.5-3.7-6.8-3.4-9.4l-1,0.1c0,0-1.9-15-2.3-25.9C33,87,37.1,83.4,52.2,81c3.5,10.4,6.1,14.9,15.4,14.8
	c9.4-0.1,10.7-17.1,10.7-17.1s8.3,1.3,15.9,3.5c0.4-2,4-7.2,5.6-7.3c0.9,0,6.3-2.6,8.4-3.6c0.7-0.4,1.8-0.5,2.4,0.1
	c0.3,0.3,0.7,0.9,0.3,2c0,0.1,0,0.1-0.1,0.2l-0.2,0c-0.4-0.1-0.7-0.1-1.1-0.2c0.1-0.1,0.2-0.2,0.2-0.3c0.1-0.3,0.1-0.5,0.1-0.5
	c0,0-0.2-0.1-0.3-0.1c-0.2,0-0.4,0-0.7,0.2c0,0-0.3,0.2-0.9,0.4l-0.6-0.1l-0.1,0l-0.1,0c-0.6,0.1-1.1,0.6-1.3,1.1
	c-2.3,1.1-5.1,2.3-6,2.4c-0.2,0-1.1,0.7-2.4,2.5c-1.1,1.5-1.9,3-2,3.7c-0.4,2-10.7,28.9-11.9,32c0,0-0.5,1.3-0.9,2.9
	c2-0.2,4.5-0.4,5.7-0.6c0.8-0.1,1.8,0.2,2.2,0.9c0.2,0.3,0.4,1-0.4,1.9c-0.7,0.9-2.6,1.5-4.7,2.1c-0.2,0.1-0.5,0.1-0.7,0.2
	c1,0.5,3.1,1,5.7,0.3c0.9-0.3,1.2-0.5,1.6-0.8c0.1-0.1,0.3-0.2,0.4-0.3c0,0,0.2-0.2,0.4-0.4c0.6-0.7,1.2-1.4,1.8-1.8
	c0.3-2.5,1-9.2,1.8-15.8c2-17.2,2.5-17.6,2.8-17.9c0.8-0.7,1.2-0.7,2.6-0.6c0.7,0,1.8,0.1,3.4,0.1c3.7,0,4.5-0.6,6-1.6
	c0.3-0.2,0.6-0.4,0.9-0.7c0.6-0.4,1-0.7,1.4-1c1.2-0.8,1.9-1.3,3-2c0.5-0.3,0.7-1.1,0.7-2c-0.4-0.1-0.8-0.2-1.3-0.3
	c-0.2,0.4-0.4,0.9-0.8,1.4c-0.1,0.2-0.3,0.2-0.5,0.2c-0.1,0-0.3,0-0.4-0.1c-0.3-0.2-0.3-0.6-0.1-0.9c0.9-1.1,0.8-1.8,0.8-2.1
	c-0.3-0.2-0.5-0.6-0.9-1.1c-0.3-0.4-0.6-0.9-1-1.2c-0.2-0.2-0.3-0.2-0.3-0.2c0,0-0.2,0.2-0.3,0.7c0,0.2,0.2,0.4,0.4,0.7
	c0.4,0.5,1.2,1.5,0.1,2.6c-2.7,2.6-6.1,2.5-7.6,1.8c-0.5-0.2-0.8-0.6-0.8-1c0-0.5,0.5-0.8,1.8-1.7c0.2-0.1,0.4-0.3,0.6-0.5
	c0.6,0.1,1.2,0.3,1.7,0.4c-0.5,0.4-1,0.7-1.6,1.1c-0.3,0.2-0.5,0.4-0.8,0.6c1.1,0.3,3.6,0.4,5.8-1.7c0.2-0.2,0.2-0.2-0.2-0.8
	c-0.3-0.4-0.8-1-0.6-1.8c0.2-0.9,0.6-1.5,1.2-1.7c0.3-0.1,0.9-0.1,1.6,0.6c0.3,0.4,0.6,0.8,0.9,1.2c0-1.4,0.1-2.8,1-3.2
	c0.5-0.2,0.9-0.1,1.4,0.2c0.8,0.6,1.4,2.1,1.3,3.6c0,0.4,0,0.8,0,1.3c0,0.1,0,0.2,0,0.2c1.8,0.4,4,0.8,4.4,0.9
	C123.2,77.1,123,78,122.5,78.3z M117.3,75.3c0-0.5,0-0.9,0-1.3c0-1.1-0.4-2.2-0.8-2.5c0,0,0,0-0.1,0c-0.2,0.4-0.2,1.7-0.2,2.3
	c0,0.6,0,1-0.1,1.3c0,0,0,0,0,0C116.4,75.1,116.8,75.2,117.3,75.3z M95.9,119.6C95.9,119.6,95.8,119.6,95.9,119.6
	c-0.4-0.1-1,0.6-2,1.7c-0.3,0.4-0.5,0.5-0.6,0.6c-0.1,0.1-0.3,0.2-0.4,0.3c-0.4,0.4-0.8,0.7-2,1c-4,1.1-6.9-0.3-7.7-1.1
	c-0.4-0.4-0.3-0.8-0.2-0.9c0.2-0.5,0.7-0.6,2.2-1c1.3-0.4,3.5-1,4.1-1.6c0.2-0.3,0.2-0.4,0.2-0.4c0-0.1-0.4-0.3-0.9-0.2
	c-0.1,0-8,1-9.4,0.6c-0.7-0.2-3,0.3-6,1.7c-1.1,0.5-14.1,2-22.5,1.1l-2.3,0.3c-2.8,0.3-4.4,0.6-5.9,0.9c-1.2,0.2-2.5,0.5-4.5,0.7
	c-0.1,2.5,1.3,6.7,2.9,7.7c4.1,2.6,31.4-3.9,33.2-4.6c1.4-0.5,3.1,0,7.4,1.5c3.4,1.2,4.3,0.9,5.9,0.4c0.3-0.1,0.7-0.2,1.1-0.3
	c0.6-0.2,1.2-0.3,1.6-0.4c1.3-0.4,2.1-0.6,3.4-0.8c0.9-0.2,1.5-2,1.9-3.3c0.1-0.5,0.3-0.9,0.4-1.3C96.2,121.1,96.2,120,95.9,119.6z"
	/>
</symbol>

<symbol id="mediator-14" fill="currentColor"> <!-- welfare -->
	<circle id="XMLID_15_" cx="75" cy="75" r="75" fill="#ffffff" /> 
	<path d="M81.7,99.5c0,5,0,10.1-0.1,15.1c-0.1,1.5-0.2,3-0.6,4.4c-0.7,2.9-2.6,4.3-5.6,4.3h-0.1c-0.5,0-1,0-1.5,0
	c-0.8,0-1.7,0-2.6,0c1.1,7.9,2.2,15.3,3,22.7c0.1,1.4,0.3,2.7,0.4,4c-10.1,0-19.8-2.1-28.6-5.8c0.2-1.4,0.3-2.2,0.3-2.3
	c0.8-5.8,1.7-11.6,2.5-17.4c0.1-0.3,0.1-0.5,0.1-0.9c-2.2,0-4.4,0-6.6,0c-1.5,0-2.9,0-4.4,0c-2.3-0.1-4.5-0.4-5.7-3
	c-0.8-1.8-0.5-3.3,0.2-5c0.4-1,0.7-2.1,0.7-3.1c0.3-7.4-0.4-14.6,0.1-22c0.1-2.4,1.4-5.4,3.3-7.5c-1.7-1.6-2.9-3.7-2.7-6.6
	c0.3-3.9,3.5-6.9,7.5-6.9c0.1,0,0.3,0,0.4,0c4.4,0.2,7.4,3.4,7.2,7.5c-0.1,2.5-1,4.6-3,6.2c-0.3,0.3-0.8,1-0.7,1.2
	c0.3,0.6,0.9,1.4,1.4,1.4c1.4,0.1,2.7,0.2,4.1,0.2c0.9,0,1.7,0,2.6-0.1c1.5-0.1,2.5-1.6,2.2-3.2c-0.3-1.4-0.9-2.8-1.5-4.1
	c-1.2-3.1-2.1-6.2-1.8-9.5c0.4-3.8,2.9-6.6,6.5-7.4c0.7-0.1,1.3-0.2,2-0.2c3,0,5.6,1.6,7.2,4.3c1.3,2.2,1.6,4.6,1,7
	c-0.7,2.5-1.5,5-2.5,7.4c-1.5,3.8-0.3,5.7,3.7,5.7h0.1c1.2,0,2.4,0,3.6,0c1,0,2,0,3,0c2.7,0.1,4.5,1.6,4.7,4.3
	C81.8,93.3,81.7,96.5,81.7,99.5z M111.9,86.2c-2.6,0-5.1,0-7.7-0.1c-1.2,0-2.5,0-3.9,0c0.7-5.1,1.3-9.7,1.9-14.4
	c0.8-5.3-1.3-8.6-6.3-10.5c-2.3-0.6-4.4-0.1-4.7,0c-3.8,0.9-6,3.3-6.5,7.1c-0.3,2.1,0,4.3,0.3,6.5c0.4,3.6,1,7.2,1.6,11.1
	c-1,0-2.7,0-4.5,0c0.9,1.1,1.5,2.5,1.6,4.1c0.2,2.7,0.2,5.4,0.2,8.1c0,0.5,0,1,0,1.5c0,4.8,0,9.9-0.1,15.2c0,1.7-0.2,3.3-0.6,4.9
	c-1,3.8-3.7,5.9-7.8,5.9h-0.2c-0.5,0-1,0-1.5,0c0,0,0,0-0.1,0c0.2,1.6,0.4,3.2,0.7,4.7c0.7,5.3,1.5,10.4,2,15.5
	c0.1,1.4,0.3,2.8,0.4,4.2c15.4-0.4,29.7-5.4,41.5-13.8c0-1.7,0-3.4,0-5.1c0,0,0-34.5-0.1-38.7C118.2,88.5,115.8,86.3,111.9,86.2z
	 M128.5,22.4c-11.3-0.2-27.1-0.6-30.7-1.5c-7.1-1.6-22.1-2.9-24.7-2.5C69,19,58,22.7,54.2,23.9c-5.6,1.8-20.2,11.8-24,15
	c-4.6,3.9,2,6.3,5.8,4.4c4.9-2.5,13.2-4.6,18.8-6.4c6.2-2.1,13.5-1.7,18.8-2c4.3-0.3,4.2,3.4,2.1,4.8c-1.3,0.9-7.7,0-13.9,0.4
	c-6.6,0.4-5.3,5.5-1.8,6.9c1.4,0.5,5.7,0.7,17.1,2.6c5.4,0.9,9.4,0.4,12.8,0.1c3.9-0.4,7.1-0.9,10.9-2.4c6.4-2.5,9.9-5.1,15.6-5.3
	c3.3-0.1,16.2,1.2,27.2,2.4C139.8,36.2,134.7,28.8,128.5,22.4z"/>
</symbol>

<symbol id="mediator-15" fill="currentColor"> <!-- cancellation -->
	<circle id="XMLID_15_" cx="75" cy="75" r="75" fill="#ffffff" /> 
	<path d="M48.5,48.5v53h53v-53H48.5z M90.6,86.8l-3.7,3.8L75,78.7L63.2,90.6l-3.7-3.8L71.3,75L59.4,63.2l3.7-3.8L75,71.2
	l11.8-11.8l3.7,3.8L78.8,75L90.6,86.8z"/>
</symbol>

</svg>
