<?xml version="1.0" encoding="utf-8"?>
<!-- Generator: Adobe Illustrator 19.0.0, SVG Export Plug-In . SVG Version: 6.00 Build 0)  -->
<svg version="1.1" id="Layer_1" xmlns="http://www.w3.org/2000/svg" xmlns:xlink="http://www.w3.org/1999/xlink" x="0px" y="0px"
	 viewBox="-294.1 219 124 124" style="enable-background:new -294.1 219 124 124;" xml:space="preserve">
<style type="text/css">
	.st0{fill:#5C5C5C;}
	.st1{fill:#4D4D4D;}
	.st2{fill:#F0F0F0;}
	.st3{fill:#E2E2E2;}
	.st4{fill:#D3D3D3;}
	.st5{fill:#C4C4C4;}
	.st6{fill:#B5B5B5;}
	.st7{fill:#A6A6A6;}
	.st8{fill:#989898;}
	.st9{fill:#888888;}
	.st10{fill:#7A7A7A;}
	.st11{fill:#6B6B6B;}
</style>
<g>
	<g transform="rotate(0 50 50)">
		<path class="st0" d="M-232.1,219L-232.1,219c5.1,0,9.2,4.1,9.2,9.2l0,0c0,5.1-4.1,9.2-9.2,9.2l0,0c-5.1,0-9.2-4.1-9.2-9.2l0,0
			C-241.4,223.1-237.2,219-232.1,219z		">
<animate  style="animation-play-state: running; animation-delay: 0s;" fill="remove" repeatCount="indefinite" keyTimes="0;1" attributeName="opacity" values="1;0" restart="always" additive="replace" calcMode="linear" accumulate="none" dur="1s" begin="-0.9166666666666666s">
				</animate>
		</path>
	</g>
	<g transform="rotate(30 50 50)">
		<path class="st1" d="M-78.8,329.1L-78.8,329.1c5.1,0,9.2,4.1,9.2,9.2l0,0c0,5.1-4.1,9.2-9.2,9.2l0,0c-5.1,0-9.2-4.1-9.2-9.2l0,0
			C-88.1,333.3-83.9,329.1-78.8,329.1z		">
<animate  style="animation-play-state: running; animation-delay: 0s;" fill="remove" repeatCount="indefinite" keyTimes="0;1" attributeName="opacity" values="1;0" restart="always" additive="replace" calcMode="linear" accumulate="none" dur="1s" begin="-0.8333333333333334s">
				</animate>
		</path>
	</g>
	<g transform="rotate(60 50 50)">
		<path class="st2" d="M109,347.8L109,347.8c5.1,0,9.2,4.1,9.2,9.2l0,0c0,5.1-4.1,9.2-9.2,9.2l0,0c-5.1,0-9.2-4.1-9.2-9.2l0,0
			C99.7,352,103.9,347.8,109,347.8z		">
<animate  style="animation-play-state: running; animation-delay: 0s;" fill="remove" repeatCount="indefinite" keyTimes="0;1" attributeName="opacity" values="1;0" restart="always" additive="replace" calcMode="linear" accumulate="none" dur="1s" begin="-0.75s">
				</animate>
		</path>
	</g>
	<g transform="rotate(90 50 50)">
		<path class="st3" d="M281,270.1L281,270.1c5.1,0,9.2,4.1,9.2,9.2l0,0c0,5.1-4.1,9.2-9.2,9.2l0,0c-5.1,0-9.2-4.1-9.2-9.2l0,0
			C271.8,274.3,275.9,270.1,281,270.1z		">
<animate  style="animation-play-state: running; animation-delay: 0s;" fill="remove" repeatCount="indefinite" keyTimes="0;1" attributeName="opacity" values="1;0" restart="always" additive="replace" calcMode="linear" accumulate="none" dur="1s" begin="-0.6666666666666666s">
				</animate>
		</path>
	</g>
	<g transform="rotate(120 50 50)">
		<path class="st4" d="M391.1,116.8L391.1,116.8c5.1,0,9.2,4.1,9.2,9.2l0,0c0,5.1-4.1,9.2-9.2,9.2l0,0c-5.1,0-9.2-4.1-9.2-9.2l0,0
			C381.9,121,386,116.8,391.1,116.8z		">
<animate  style="animation-play-state: running; animation-delay: 0s;" fill="remove" repeatCount="indefinite" keyTimes="0;1" attributeName="opacity" values="1;0" restart="always" additive="replace" calcMode="linear" accumulate="none" dur="1s" begin="-0.5833333333333334s">
				</animate>
		</path>
	</g>
	<g transform="rotate(150 50 50)">
		<path class="st5" d="M409.8-71L409.8-71c5.1,0,9.2,4.1,9.2,9.2l0,0c0,5.1-4.1,9.2-9.2,9.2l0,0c-5.1,0-9.2-4.1-9.2-9.2l0,0
			C400.6-66.8,404.7-71,409.8-71z		">
<animate  style="animation-play-state: running; animation-delay: 0s;" fill="remove" repeatCount="indefinite" keyTimes="0;1" attributeName="opacity" values="1;0" restart="always" additive="replace" calcMode="linear" accumulate="none" dur="1s" begin="-0.5s">
				</animate>
		</path>
	</g>
	<g transform="rotate(180 50 50)">
		<path class="st6" d="M332.1-243L332.1-243c5.1,0,9.2,4.1,9.2,9.2l0,0c0,5.1-4.1,9.2-9.2,9.2l0,0c-5.1,0-9.2-4.1-9.2-9.2l0,0
			C322.9-238.9,327-243,332.1-243z		">
<animate  style="animation-play-state: running; animation-delay: 0s;" fill="remove" repeatCount="indefinite" keyTimes="0;1" attributeName="opacity" values="1;0" restart="always" additive="replace" calcMode="linear" accumulate="none" dur="1s" begin="-0.4166666666666667s">
				</animate>
		</path>
	</g>
	<g transform="rotate(210 50 50)">
		<path class="st7" d="M178.8-353.1L178.8-353.1c5.1,0,9.2,4.1,9.2,9.2l0,0c0,5.1-4.1,9.2-9.2,9.2l0,0c-5.1,0-9.2-4.1-9.2-9.2l0,0
			C169.6-349,173.7-353.1,178.8-353.1z		">
<animate  style="animation-play-state: running; animation-delay: 0s;" fill="remove" repeatCount="indefinite" keyTimes="0;1" attributeName="opacity" values="1;0" restart="always" additive="replace" calcMode="linear" accumulate="none" dur="1s" begin="-0.3333333333333333s">
				</animate>
		</path>
	</g>
	<g transform="rotate(240 50 50)">
		<path class="st8" d="M-9-371.8L-9-371.8c5.1,0,9.2,4.1,9.2,9.2l0,0c0,5.1-4.1,9.2-9.2,9.2l0,0c-5.1,0-9.2-4.1-9.2-9.2l0,0
			C-18.2-367.7-14.1-371.8-9-371.8z		">
<animate  style="animation-play-state: running; animation-delay: 0s;" fill="remove" repeatCount="indefinite" keyTimes="0;1" attributeName="opacity" values="1;0" restart="always" additive="replace" calcMode="linear" accumulate="none" dur="1s" begin="-0.25s">
				</animate>
		</path>
	</g>
	<g transform="rotate(270 50 50)">
		<path class="st9" d="M-181-294.1L-181-294.1c5.1,0,9.2,4.1,9.2,9.2l0,0c0,5.1-4.1,9.2-9.2,9.2l0,0c-5.1,0-9.2-4.1-9.2-9.2l0,0
			C-190.2-290-186.1-294.1-181-294.1z		">
<animate  style="animation-play-state: running; animation-delay: 0s;" fill="remove" repeatCount="indefinite" keyTimes="0;1" attributeName="opacity" values="1;0" restart="always" additive="replace" calcMode="linear" accumulate="none" dur="1s" begin="-0.16666666666666666s">
				</animate>
		</path>
	</g>
	<g transform="rotate(300 50 50)">
		<path class="st10" d="M-291.1-140.8L-291.1-140.8c5.1,0,9.2,4.1,9.2,9.2l0,0c0,5.1-4.1,9.2-9.2,9.2l0,0c-5.1,0-9.2-4.1-9.2-9.2
			l0,0C-300.4-136.7-296.2-140.8-291.1-140.8z		">
<animate  style="animation-play-state: running; animation-delay: 0s;" fill="remove" repeatCount="indefinite" keyTimes="0;1" attributeName="opacity" values="1;0" restart="always" additive="replace" calcMode="linear" accumulate="none" dur="1s" begin="-0.08333333333333333s">
				</animate>
		</path>
	</g>
	<g transform="rotate(330 50 50)">
		<path class="st11" d="M-309.8,47L-309.8,47c5.1,0,9.2,4.1,9.2,9.2l0,0c0,5.1-4.1,9.2-9.2,9.2l0,0c-5.1,0-9.2-4.1-9.2-9.2l0,0
			C-319.1,51.1-314.9,47-309.8,47z		">
<animate  style="animation-play-state: running; animation-delay: 0s;" fill="remove" repeatCount="indefinite" keyTimes="0;1" attributeName="opacity" values="1;0" restart="always" additive="replace" calcMode="linear" accumulate="none" dur="1s" begin="0s">
				</animate>
		</path>
	</g>
</g>
</svg>
